<svg xmlns="http://www.w3.org/2000/svg" xmlns:xlink="http://www.w3.org/1999/xlink" width="80" height="80" viewBox="0 0 80 80"><defs><style>.a{fill:#fff;stroke:#707070;}.b{clip-path:url(#a);}.c{fill:#365e7d;}.d{fill:#2b4d66;}.e{fill:#4a80aa;}.f{fill:#407093;}.g{fill:#e4f6ff;}.h{fill:#e28086;}.i{fill:#dd636e;}.j{fill:#ffddce;}.k{fill:#ffcbbe;}.l{fill:#f4fbff;}</style><clipPath id="a"><rect class="a" width="80" height="80" transform="translate(1120 812)"/></clipPath></defs><g class="b" transform="translate(-1120 -812)"><g transform="translate(1118 803.17)"><g transform="translate(10.943 11.45)"><path class="c" d="M52.064,15.463A4.014,4.014,0,0,0,48.05,11.45H34.219a9.237,9.237,0,0,0-9.237,9.237V30.943H57.568V20.832a4.014,4.014,0,0,0-4.014-4.014h-.135a1.356,1.356,0,0,1-1.356-1.355Z" transform="translate(-9.749 -11.45)"/><path class="d" d="M51.865,16.819H51.73a1.356,1.356,0,0,1-1.356-1.356,4.014,4.014,0,0,0-4.014-4.014H44.844V30.943H55.879V20.832a4.014,4.014,0,0,0-4.013-4.013Z" transform="translate(-8.059 -11.45)"/><path class="e" d="M71.131,58.693a9.623,9.623,0,0,0-3.864-2.33L55.418,52.611l-12.944-.455-12.949.455L17.675,56.363a9.644,9.644,0,0,0-6.733,9.194v3.237a43.276,43.276,0,0,0,30.039,13.55,44.517,44.517,0,0,0,30.149-23.65Z" transform="translate(-10.943 -7.988)"/><path class="f" d="M71.96,68.331V65.093a9.642,9.642,0,0,0-3.578-7.5A43.438,43.438,0,0,1,34.925,81.556a43.8,43.8,0,0,0,5.43.349,46.406,46.406,0,0,0,5.226-.3A43.29,43.29,0,0,0,71.96,68.331Z" transform="translate(-8.903 -7.525)"/><path class="g" d="M41.676,81.954C44.3,76.741,51.14,61.937,49.19,52.69L40.7,49.384l-8.5,3.306c-2.01,9.532,5.318,24.969,7.745,29.718Q40.814,82.2,41.676,81.954Z" transform="translate(-9.164 -8.223)"/><path class="h" d="M45.886,76.654,42.442,63.105H38.412L34.977,76.617l4.248,4.73q1.618-.371,3.189-.857Z" transform="translate(-8.898 -7.056)"/><path class="i" d="M39.019,80.175c.352.009.7.015,1.058.016.409,0,.818-.008,1.224-.019l2.188-2.417a43.065,43.065,0,0,1-5.308,1.488Z" transform="translate(-8.626 -5.811)"/><g transform="translate(15.233 10.875)"><g transform="translate(9.039 24.701)"><path class="j" d="M47.821,51.877v-7.64H33.312v7.64c0,4.007,7.255,8.383,7.255,8.383s7.255-4.376,7.255-8.383Z" transform="translate(-33.312 -44.237)"/></g><path class="j" d="M57.568,28.745H54.795A2.793,2.793,0,0,1,52,25.952V24.423a2.948,2.948,0,0,0-3.873-2.8,21.836,21.836,0,0,1-13.7,0l-.005,0a2.948,2.948,0,0,0-3.873,2.8v1.529a2.793,2.793,0,0,1-2.793,2.793H24.981v4.567a2.113,2.113,0,0,0,2.113,2.113.7.7,0,0,1,.691.656,13.517,13.517,0,0,0,26.979,0,.7.7,0,0,1,.691-.656,2.113,2.113,0,0,0,2.113-2.113V28.745Z" transform="translate(-24.981 -21.473)"/><path class="k" d="M53.633,28.745a2.793,2.793,0,0,1-2.793-2.793V24.423a2.948,2.948,0,0,0-3.873-2.8q-.79.261-1.595.459V37.167a13.513,13.513,0,0,1-6.735,11.488A13.5,13.5,0,0,0,53.6,36.081a.7.7,0,0,1,.691-.656,2.113,2.113,0,0,0,2.113-2.113V28.744H53.633Z" transform="translate(-23.82 -21.472)"/></g><g transform="translate(18.582 41.161)"><path class="l" d="M33.758,49.384l-5.689,4.623,5.966,7.377a1.976,1.976,0,0,0,2.646.1l4.487-3.748Z" transform="translate(-28.068 -49.384)"/><path class="l" d="M47.243,49.384l-7.1,8.353,4.217,3.606a1.977,1.977,0,0,0,2.653-.077l5.924-7.259Z" transform="translate(-27.041 -49.384)"/></g><path class="c" d="M34.041,49.384l-8.351,4.1a1.265,1.265,0,0,0-.566,1.715l1.636,3.172a2.124,2.124,0,0,1-.387,2.477l-1.018,1.016a2.119,2.119,0,0,0-.52,2.159c1.975,6.021,11.482,15.229,15.08,18.561q.363.01.727.014C38.033,77.526,28.788,58.246,34.041,49.384Z" transform="translate(-9.77 -8.223)"/><path class="c" d="M54.871,60.851a2.124,2.124,0,0,1-.387-2.477L56.12,55.2a1.265,1.265,0,0,0-.566-1.715l-8.351-4.1c5.252,8.859-3.987,28.131-6.6,33.213q.368-.006.735-.018c3.605-3.339,13.1-12.536,15.07-18.552a2.119,2.119,0,0,0-.52-2.159l-1.018-1.016Z" transform="translate(-8.42 -8.223)"/><path class="i" d="M40.487,57.082l-4.418,3.69,2.251,2.845h4.029L44.6,60.6Z" transform="translate(-8.806 -7.569)"/></g></g></g></svg>