<svg xmlns="http://www.w3.org/2000/svg" width="560" height="325.317" viewBox="0 0 560 325.317"><defs><style>.a{opacity:0.5;}.b{fill:#65e593;}.c{fill:#9bffb6;}.d{fill:#fff;}.e{fill:#78e0de;}.f{fill:#ffa64e;}.g{fill:#2fb654;}.h{fill:#47cc6b;}.i{fill:#39375e;}.j{fill:#ddd;stroke:#4b4b90;stroke-width:0.928px;}.j,.m{stroke-miterlimit:10;}.k{fill:#181844;}.l{fill:#1f1f54;}.m{fill:none;stroke:#ff812c;stroke-linecap:round;stroke-width:0.409px;}</style></defs><g class="a" transform="translate(0.319)"><path class="b" d="M983.7,497.2V302.147h69.938V497.2h131.544V603.435H986.46v.408H934.823V497.2Zm9.087-78.338h51.763v-5.28H992.787Zm0-10.551h51.763v-5.283H992.787Zm0-10.554h51.763v-5.271H992.787Zm0-10.551h51.763v-5.274H992.787Zm0-10.542h51.763v-5.283H992.787Zm0-10.554h51.763v-5.28H992.787Zm0-10.554h51.763v-5.268H992.787Zm0-10.551h51.763v-5.271H992.787Zm0-10.554h51.763V329.18H992.787Zm0-10.542h51.763v-5.28H992.787Zm0-10.551h51.763v-5.271H992.787Z" transform="translate(-817.162 -278.526)"/><path class="c" d="M926.437,500.1V315.184h8.336V296.473h61.8v18.711h8.283V547.661h60.5V442.378h88.094V580.531H1196V333.062h86.777V523.189h10.184V410.013h15.7l43.761-23.111v23.111h9.571V549.791h21.249V360.5h21.489V294.094h2.942V360.5h21.489v239H869.482V500.1Zm461.986-17.972h35.454v-4.115h-35.454Zm0-9.518h35.454V468.5h-35.454Zm0-9.533h35.454v-4.115h-35.454Zm0-9.518h35.454v-4.115h-35.454Zm0-9.521h35.454v-4.112h-35.454Zm0-9.53h35.454V430.4h-35.454Zm0-9.521h35.454v-4.112h-35.454Zm0-9.518h35.454v-4.112h-35.454Zm0-9.53h35.454v-4.115h-35.454Zm0-9.521h35.454v-4.112h-35.454Zm0-9.518h35.454v-4.112h-35.454Zm0-9.533h35.454v-4.112h-35.454Zm0-9.518h35.454v-4.112h-35.454Zm-124.334,56.688h10.56V414h-10.56Zm0-17.588h10.56V396.394h-10.56Zm0-17.6h10.56V378.809h-10.56Zm0-17.588h10.56V361.207h-10.56Zm0-17.6h10.56V343.607h-10.56Zm-20.049,70.374h10.545V414H1244.04Zm0-17.588h10.545V396.394H1244.04Zm0-17.6h10.545V378.809H1244.04Zm0-17.588h10.545V361.207H1244.04Zm0-17.6h10.545V343.607H1244.04Zm-20.063,70.374h10.557V414h-10.557Zm0-17.588h10.557V396.394h-10.557Zm0-17.6h10.557V378.809h-10.557Zm0-17.588h10.557V361.207h-10.557Zm0-17.6h10.557V343.607h-10.557Zm-20.049,70.374h10.542V414h-10.542Zm0-17.588h10.542V396.394h-10.542Zm0-17.6h10.542V378.809h-10.542Zm0-17.588h10.542V361.207h-10.542ZM915.466,587.134h10.97v-10.97h-10.97Zm0-21.967h10.97V554.2h-10.97Zm0-21.967h10.97v-10.97h-10.97Zm0-21.967h10.97v-10.97h-10.97Zm-20.354,65.9H906.08v-10.97H895.113Zm0-21.967H906.08V554.2H895.113Zm0-21.967H906.08v-10.97H895.113Zm0-21.967H906.08v-10.97H895.113Zm-20.357,65.9h10.982v-10.97H874.756Zm0-21.967h10.982V554.2H874.756Zm0-21.967h10.982v-10.97H874.756Zm0-21.967h10.982v-10.97H874.756Z" transform="translate(-869.482 -294.094)"/><g transform="translate(334.438 49.513)"><rect class="d" width="10.558" height="10.558" transform="translate(0 211.13)"/><rect class="d" width="10.558" height="10.557" transform="translate(60.17 228.724)"/><rect class="d" width="10.558" height="10.557" transform="translate(40.113 228.724)"/><rect class="d" width="10.558" height="10.557" transform="translate(20.056 228.724)"/><rect class="d" width="10.558" height="10.557" transform="translate(0 228.724)"/><rect class="d" width="10.558" height="10.557" transform="translate(0 35.194)"/><rect class="d" width="10.558" height="10.558" transform="translate(60.17 52.788)"/><rect class="d" width="10.558" height="10.558" transform="translate(40.113 52.788)"/><rect class="d" width="10.558" height="10.558" transform="translate(20.056 52.788)"/><rect class="d" width="10.558" height="10.558" transform="translate(0 52.788)"/><rect class="d" width="10.558" height="10.558" transform="translate(60.17 70.381)"/><rect class="d" width="10.558" height="10.558" transform="translate(40.113 70.381)"/><rect class="d" width="10.558" height="10.558" transform="translate(20.056 70.381)"/><rect class="d" width="10.558" height="10.558" transform="translate(0 70.381)"/><rect class="d" width="10.558" height="10.558" transform="translate(60.17 87.975)"/><rect class="d" width="10.558" height="10.558" transform="translate(40.113 87.975)"/><rect class="d" width="10.558" height="10.558" transform="translate(20.056 87.975)"/><rect class="d" width="10.558" height="10.558" transform="translate(0 87.975)"/><rect class="d" width="10.558" height="10.558" transform="translate(60.17 105.568)"/><rect class="d" width="10.558" height="10.558" transform="translate(40.113 105.568)"/><rect class="d" width="10.558" height="10.558" transform="translate(20.056 105.568)"/><rect class="d" width="10.558" height="10.558" transform="translate(0 105.568)"/><rect class="d" width="10.558" height="10.558" transform="translate(60.17 123.162)"/><rect class="d" width="10.558" height="10.558" transform="translate(40.113 123.162)"/><rect class="d" width="10.558" height="10.558" transform="translate(20.056 123.162)"/><rect class="d" width="10.558" height="10.558" transform="translate(0 123.162)"/><rect class="d" width="10.558" height="10.558" transform="translate(60.17 140.755)"/><rect class="d" width="10.558" height="10.558" transform="translate(40.113 140.755)"/><rect class="d" width="10.558" height="10.558" transform="translate(20.056 140.755)"/><rect class="d" width="10.558" height="10.558" transform="translate(0 140.755)"/><rect class="d" width="10.558" height="10.557" transform="translate(60.17 158.349)"/><rect class="d" width="10.558" height="10.557" transform="translate(40.113 158.349)"/><rect class="d" width="10.558" height="10.557" transform="translate(20.056 158.349)"/><rect class="d" width="10.558" height="10.557" transform="translate(0 158.349)"/><rect class="d" width="10.558" height="10.558" transform="translate(60.17 175.943)"/><rect class="d" width="10.558" height="10.558" transform="translate(40.113 175.943)"/><rect class="d" width="10.558" height="10.558" transform="translate(20.056 175.943)"/><rect class="d" width="10.558" height="10.558" transform="translate(0 175.943)"/><rect class="d" width="10.558" height="10.558" transform="translate(60.17 193.537)"/><rect class="d" width="10.558" height="10.558" transform="translate(40.113 193.537)"/><rect class="d" width="10.558" height="10.558" transform="translate(20.056 193.537)"/><rect class="d" width="10.558" height="10.558" transform="translate(0 193.537)"/><rect class="d" width="10.558" height="10.558" transform="translate(60.17 211.13)"/><rect class="d" width="10.558" height="10.558" transform="translate(40.113 211.13)"/><rect class="d" width="10.558" height="10.558" transform="translate(20.056 211.13)"/><rect class="d" width="10.558" height="10.558" transform="translate(60.17)"/><rect class="d" width="10.558" height="10.558" transform="translate(40.113)"/><rect class="d" width="10.558" height="10.558" transform="translate(20.056)"/><rect class="d" width="10.558" height="10.558" transform="translate(60.17 17.6)"/><rect class="d" width="10.558" height="10.558" transform="translate(40.113 17.6)"/><rect class="d" width="10.558" height="10.558" transform="translate(20.056 17.6)"/><rect class="d" width="10.558" height="10.558" transform="translate(0 17.6)"/><rect class="d" width="10.558" height="10.557" transform="translate(60.17 35.194)"/><rect class="d" width="10.558" height="10.557" transform="translate(40.113 35.194)"/><rect class="d" width="10.558" height="10.557" transform="translate(20.056 35.194)"/></g></g><g transform="translate(0 166)"><path class="e" d="M941.87,363.121s-1.1,2.087-.38,2.952c.365.439,11.848,6.821,22.776,13.742,10.615,6.723,20.672,13.992,21.879,14.2,2.448.432,17.374-.323,17.374-.323s-6.364-.481-9.41-2.307-17.762-10.584-21.726-12.751S943.157,363.686,941.87,363.121Z" transform="translate(-744.415 -339.314)"/><path class="f" d="M922.6,401.767s2.011,10.158,1.585,10.521-21.865.275-22.413,0-1.44-.932,0-3.93,3.531-6.3,7.8-6.591S922.6,401.767,922.6,401.767Z" transform="translate(-580.638 -296.963)"/><path class="d" d="M901.8,453.554c2.3,6.937,31.384,13.838,31.384,13.838s299.9,1.442,305.668,0a1.537,1.537,0,0,0,.172-.034,7.834,7.834,0,0,0,5.768-6.971,6.389,6.389,0,0,0-.067-2.129c-.378-2.1-.962-5.186-1.717-8.755-2.4-11.367-6.626-27.54-11.915-31.384-7.349-5.289-55.112-15.453-71.285-19.058a.033.033,0,0,1-.033-.034c-2.266-.481-3.914-.859-4.739-1.065-5.356-1.373-33.478-19.091-56.827-29.428a116.867,116.867,0,0,0-15.453-5.837c-29.392-8.277-91.4-3.227-109.534.411-4.842.962-11.6,4.4-18.953,8.894-11.951,7.279-25.375,17.443-34.372,24.517-6.248,4.909-10.336,8.344-10.336,8.344a17.247,17.247,0,0,0-.823,3.777v.034c-.756,6.318.069,15.52-.617,18.1a5.281,5.281,0,0,1-.344.928c-1.476,3.021-5.976,6.557-5.976,6.557S899.47,446.653,901.8,453.554Z" transform="translate(-900.767 -344.703)"/><path class="g" d="M1022.6,367.665l-5.465-13.7a2.817,2.817,0,0,0-2.15-1.747,32.665,32.665,0,0,0-13.458.6,2.78,2.78,0,0,0-1.917,1.957L996,367.665" transform="translate(-878.453 -351.782)"/><path class="h" d="M901.8,453.555c2.3,6.937,31.384,13.838,31.384,13.838s299.9,1.442,305.668,0a1.537,1.537,0,0,0,.172-.034,7.834,7.834,0,0,0,5.768-6.971,6.389,6.389,0,0,0-.067-2.129c-.378-2.1-.962-5.186-1.717-8.755-.79-3.813-1.821-8.138-2.988-12.362-.034-.136-.069-.239-.069-.239-2.335-8.346-5.356-16.242-8.858-18.783-7.349-5.289-55.112-15.453-71.285-19.058a.033.033,0,0,1-.033-.034c-2.266-.481-3.914-.859-4.739-1.065-5.356-1.373-33.478-19.091-56.827-29.428a116.858,116.858,0,0,0-15.453-5.837c-26.026-7.315-77.6-4.224-101.672-.892a.033.033,0,0,1-.034.034c-3.091.412-5.768.859-7.829,1.27-4.842.962-11.6,4.4-18.953,8.894-11.951,7.279-25.375,17.443-34.372,24.517-6.248,4.909-10.336,8.344-10.336,8.344a17.247,17.247,0,0,0-.823,3.777v.034c-.756,6.318.069,15.52-.617,18.1a5.278,5.278,0,0,1-.344.928c-1.476,3.021-5.976,6.557-5.976,6.557S899.47,446.654,901.8,453.555Z" transform="translate(-900.767 -344.703)"/><g transform="translate(62.346 93.373)"><rect class="d" width="8.343" height="8.343" transform="translate(0 8.343)"/><rect class="d" width="8.343" height="8.343" transform="translate(150.177 8.343)"/><rect class="d" width="8.343" height="8.343" transform="translate(141.834)"/><rect class="d" width="8.343" height="8.343" transform="translate(133.491 8.343)"/><rect class="d" width="8.343" height="8.343" transform="translate(125.148)"/><rect class="d" width="8.343" height="8.343" transform="translate(116.805 8.343)"/><rect class="d" width="8.343" height="8.343" transform="translate(108.462)"/><rect class="d" width="8.343" height="8.343" transform="translate(100.118 8.343)"/><rect class="d" width="8.343" height="8.343" transform="translate(91.775)"/><rect class="d" width="8.343" height="8.343" transform="translate(83.432 8.343)"/><rect class="d" width="8.343" height="8.343" transform="translate(75.089)"/><rect class="d" width="8.343" height="8.343" transform="translate(66.746 8.343)"/><rect class="d" width="8.343" height="8.343" transform="translate(58.402)"/><rect class="d" width="8.343" height="8.343" transform="translate(50.059 8.343)"/><rect class="d" width="8.343" height="8.343" transform="translate(41.716)"/><rect class="d" width="8.343" height="8.343" transform="translate(33.373 8.343)"/><rect class="d" width="8.343" height="8.343" transform="translate(25.03)"/><rect class="d" width="8.343" height="8.343" transform="translate(16.687 8.343)"/><rect class="d" width="8.343" height="8.343" transform="translate(8.343)"/><rect class="d" width="8.343" height="8.343" transform="translate(200.237 8.343)"/><rect class="d" width="8.343" height="8.343" transform="translate(191.893)"/><rect class="d" width="8.343" height="8.343" transform="translate(183.55 8.343)"/><rect class="d" width="8.343" height="8.343" transform="translate(175.207)"/><rect class="d" width="8.343" height="8.343" transform="translate(166.864 8.343)"/><rect class="d" width="8.343" height="8.343" transform="translate(158.521)"/></g><path class="i" d="M1036.166,389.3s13.735.136,16.035,0,24.208-18.714,24.622-20.876c.445-2.165-6.284-3.641-6.284-3.641C1058.587,372.065,1045.163,382.229,1036.166,389.3Z" transform="translate(-1017.032 -337.484)"/><path class="i" d="M1074.857,363.771l.561,27.047s-.216,1.835-4.537,1.835-69.252-1.512-69.252-1.512-3.456-.323-1.728-3.242,15.991-20.418,28.2-22.472,44.383-2.736,44.383-2.736S1074.857,362.638,1074.857,363.771Z" transform="translate(-938.447 -339.786)"/><path class="i" d="M956.381,364.026l5.975,27.727a3.343,3.343,0,0,0,2.807,1.946c2.018.071,73.5,2.3,73.5,2.3s1.837-1.079,0-2.881-27.068-18.667-42.481-24.284-39.3-6.148-39.3-6.148S956.093,362.676,956.381,364.026Z" transform="translate(-812.025 -339.787)"/><path class="i" d="M941.481,366.052c.378.447,11.846,6.834,22.8,13.735,10.611,6.729,20.672,14.01,21.873,14.216,2.438.445,17.374-.311,17.374-.311a.111.111,0,0,1-.069-.034.033.033,0,0,1-.034-.034c-2.266-.481-3.914-.859-4.739-1.065-5.356-1.373-33.478-19.091-56.827-29.428C941.687,363.443,940.828,365.263,941.481,366.052Z" transform="translate(-744.413 -339.3)"/><ellipse class="i" cx="28.197" cy="28.197" rx="28.197" ry="28.197" transform="translate(80.195 148.341) rotate(-166.795)"/><ellipse class="i" cx="28.197" cy="28.197" rx="28.197" ry="28.197" transform="translate(296.263 146.782) rotate(-170.821)"/><ellipse class="j" cx="15.979" cy="15.979" rx="15.979" ry="15.979" transform="translate(256.945 98.469)"/><path class="j" d="M1060.811,414.66a15.979,15.979,0,1,1-15.98-15.978A15.978,15.978,0,0,1,1060.811,414.66Z" transform="translate(-985.648 -300.213)"/><path class="g" d="M1051.994,401.311s7.176-.069,8.927-.928c1.718-.859,9.58-13.53,10.439-15.486s-1.339-2.677-1.339-2.677h-17.032l-.034.034v.034c-.584,4.842-.241,11.331-.344,15.281a13.32,13.32,0,0,1-.273,2.816A5.268,5.268,0,0,1,1051.994,401.311Z" transform="translate(-1044.981 -318.314)"/><path class="h" d="M905.425,386.146s9.683,13.528,12.293,14.936c2.576,1.407,19.539.206,20.637,0,.309-.069.378-.687.241-1.579-.344-2.165-1.89-6.078-3.813-7.829-1.888-1.718-15.69-4.224-23.691-5.253C907.589,386.007,905.185,385.837,905.425,386.146Z" transform="translate(-604.316 -314.171)"/><path class="g" d="M905.425,386.146s9.683,13.528,12.293,14.936c2.576,1.407,19.539.206,20.637,0,.309-.069.378-.687.241-1.579-17.96.445-24.928-8.035-27.5-13.082C907.589,386.007,905.185,385.837,905.425,386.146Z" transform="translate(-604.316 -314.171)"/><path class="g" d="M919.879,393.882s-.848-2.423-2.221-3.311-10.706-2.788-10.706-2.788S918.143,391.3,919.879,393.882Z" transform="translate(-588.774 -312.197)"/><path class="k" d="M902.08,412.582c2.746-.034,21.735,0,22.7,0a6.392,6.392,0,0,0-.067-2.129c-.378-2.1-.962-5.186-1.718-8.755H907.747s-2.4-.139-4.43,3.605C901.6,408.5,899.264,412.652,902.08,412.582Z" transform="translate(-580.746 -296.897)"/><path class="l" d="M902.664,412.582H903.8a39.587,39.587,0,0,1,2.129-4.43c2.026-3.741,4.43-3.6,4.43-3.6h13.836c-.206-.892-.411-1.854-.617-2.849H908.331s-2.4-.139-4.43,3.605C902.184,408.5,899.849,412.652,902.664,412.582Z" transform="translate(-581.331 -296.897)"/><path class="m" d="M995.471,360.978s5.486,33.02,5.7,52.682,0,46.025,0,46.025" transform="translate(-856.017 -341.671)"/><path class="m" d="M982.7,364.2c28.756-3.907,54.753-4.39,86.253-1.05,6.2.659,12.967,3.527,19.81,6.649,22.163,10.111,44.565,27.313,45.061,28.138.649,1.081,0,57.259,0,57.259s.216,4.539-5.835,4.539h-119.5a14.657,14.657,0,0,1-14.4-11.56c-2.036-9.79-7.9-22.974-24.483-27.767,0,0-16.746-25.065-17.393-28.737S973.548,365.445,982.7,364.2Z" transform="translate(-897.995 -341.725)"/><path class="h" d="M983.056,379.561s17.017.145,19.921,1.073c1.818.582,2.347,4.592-1.369,4.592-5.035,0-16.482-2.832-18.716-3.445C981.057,381.276,980.973,379.54,983.056,379.561Z" transform="translate(-829.804 -321.238)"/><path class="h" d="M1024.585,379.561s17.017.145,19.921,1.073c1.818.582,2.35,4.592-1.367,4.592-5.037,0-16.483-2.832-18.718-3.445C1022.588,381.276,1022.5,379.54,1024.585,379.561Z" transform="translate(-958.528 -321.238)"/><path class="h" d="M1051.994,401.311s7.176-.069,8.927-.928c1.718-.859,9.58-13.53,10.439-15.486s-1.339-2.677-1.339-2.677H1065.8c-2.163,4.669-7.107,13.836-13.185,15.348a13.32,13.32,0,0,1-.273,2.816A5.268,5.268,0,0,1,1051.994,401.311Z" transform="translate(-1044.981 -318.314)"/></g></svg>