<svg xmlns="http://www.w3.org/2000/svg" xmlns:xlink="http://www.w3.org/1999/xlink" width="80" height="80" viewBox="0 0 80 80"><defs><style>.a,.k{fill:#fff;}.a{stroke:#707070;}.b{clip-path:url(#a);}.c{fill:url(#b);}.d{fill:url(#c);}.e{fill:url(#d);}.f{fill:#2fb654;}.g{fill:url(#e);}.h{fill:url(#f);}.i{fill:url(#g);}.j{fill:url(#h);}.l{fill:url(#i);}</style><clipPath id="a"><rect class="a" width="80" height="80" transform="translate(484 812)"/></clipPath><linearGradient id="b" x1="0.44" y1="0.555" x2="1.284" y2="-0.145" gradientUnits="objectBoundingBox"><stop offset="0" stop-color="#777"/><stop offset="1" stop-color="#3b4041"/></linearGradient><linearGradient id="c" x1="0.514" y1="2.452" x2="-0.029" y2="1.231" xlink:href="#b"/><linearGradient id="d" x1="0.497" y1="3.319" x2="0.497" y2="4.54" gradientUnits="objectBoundingBox"><stop offset="0" stop-color="#a7f3ce"/><stop offset="1" stop-color="#61db99"/></linearGradient><linearGradient id="e" x1="0.604" y1="-0.285" x2="0.049" y2="0.364" gradientUnits="objectBoundingBox"><stop offset="0" stop-color="#3b4041" stop-opacity="0"/><stop offset="1" stop-color="#3b4041"/></linearGradient><linearGradient id="f" x1="0.915" y1="-0.137" x2="0.374" y2="0.217" xlink:href="#e"/><linearGradient id="g" x1="0.612" y1="-2.096" x2="0.25" y2="-1.509" xlink:href="#e"/><linearGradient id="h" x1="0.726" y1="-1.957" x2="0.339" y2="-1.504" xlink:href="#e"/><linearGradient id="i" x1="0.214" y1="-1.467" x2="0.806" y2="-2.06" gradientUnits="objectBoundingBox"><stop offset="0" stop-color="#fff"/><stop offset="1" stop-color="#c3c3c3"/></linearGradient></defs><g class="b" transform="translate(-484 -812)"><g transform="translate(484 812)"><path class="c" d="M67.694,80H12.306a5.474,5.474,0,0,1-5.474-5.474V5.474A5.474,5.474,0,0,1,12.306,0H67.694a5.474,5.474,0,0,1,5.474,5.474V74.526A5.474,5.474,0,0,1,67.694,80Z"/><path class="d" d="M67.694,0H12.306A5.474,5.474,0,0,0,6.833,5.474v21.6H73.167V5.474A5.474,5.474,0,0,0,67.694,0Z"/><path class="e" d="M15.412,4.633H64.588a3.134,3.134,0,0,1,3.134,3.134v11.54a3.134,3.134,0,0,1-3.134,3.134H15.412a3.134,3.134,0,0,1-3.134-3.134V7.767A3.134,3.134,0,0,1,15.412,4.633Z"/><path class="f" d="M64,21.711H16a2.962,2.962,0,0,1-2.962-2.962V8.325A2.962,2.962,0,0,1,16,5.363H64a2.962,2.962,0,0,1,2.962,2.962V18.749A2.962,2.962,0,0,1,64,21.711Z"/><path class="g" d="M73.167,72.6v1.93A5.469,5.469,0,0,1,67.693,80H48.711L17.855,49.144a11.273,11.273,0,1,1,15.93-15.93Z"/><path class="h" d="M73.167,43.606v30.92a5.446,5.446,0,0,1-.069.871L46.845,49.144a11.273,11.273,0,1,1,15.93-15.93Z"/><path class="i" d="M55.767,80H23.907l-6.052-6.052a11.273,11.273,0,1,1,15.93-15.93Z"/><path class="j" d="M73.167,68.41v6.117A5.469,5.469,0,0,1,67.693,80H52.9l-6.052-6.052a11.273,11.273,0,1,1,15.93-15.93Z"/><circle class="k" cx="11.275" cy="11.275" r="11.275" transform="translate(43.219 29.59)"/><path class="f" d="M59.323,39.028H49.666a.71.71,0,0,0-.71.71v2.254a.71.71,0,0,0,.71.71h9.657a.71.71,0,0,0,.71-.71V39.738A.71.71,0,0,0,59.323,39.028Z"/><circle class="k" cx="11.275" cy="11.275" r="11.275" transform="translate(14.231 29.59)"/><path class="f" d="M30.334,39.028H28.052a.71.71,0,0,1-.71-.71V36.036a.71.71,0,0,0-.71-.71H24.378a.71.71,0,0,0-.71.71v2.282a.71.71,0,0,1-.71.71H20.677a.71.71,0,0,0-.71.71v2.254a.71.71,0,0,0,.71.71h2.282a.71.71,0,0,1,.71.71v2.282a.71.71,0,0,0,.71.71h2.254a.71.71,0,0,0,.71-.71V43.412a.71.71,0,0,1,.71-.71h2.282a.71.71,0,0,0,.71-.71V39.738A.71.71,0,0,0,30.334,39.028Z"/><circle class="f" cx="11.275" cy="11.275" r="11.275" transform="translate(43.219 54.393)"/><path class="k" d="M59.323,67.046H49.666a.71.71,0,0,0-.71.71V70.01a.71.71,0,0,0,.71.71h9.657a.71.71,0,0,0,.71-.71V67.756A.71.71,0,0,0,59.323,67.046Z"/><path class="k" d="M59.323,60.614H49.666a.71.71,0,0,0-.71.71v2.254a.71.71,0,0,0,.71.71h9.657a.71.71,0,0,0,.71-.71V61.324A.71.71,0,0,0,59.323,60.614Z"/><circle class="l" cx="11.275" cy="11.275" r="11.275" transform="translate(14.231 54.393)"/><path class="f" d="M30.334,63.83H20.677a.71.71,0,0,0-.71.71v2.254a.71.71,0,0,0,.71.71h9.657a.71.71,0,0,0,.71-.71V64.54A.71.71,0,0,0,30.334,63.83Z"/><circle class="f" cx="2.453" cy="2.453" r="2.453" transform="translate(23.053 57.943)"/><circle class="f" cx="2.453" cy="2.453" r="2.453" transform="translate(23.053 68.485)"/><path class="k" d="M36.606,9.982a.782.782,0,0,1,.344-.672l1.7-1.638a.6.6,0,0,1,.442-.18.952.952,0,0,1,.532.156.478.478,0,0,1,.238.418V18.91a.47.47,0,0,1-.262.418,1.274,1.274,0,0,1-1.22,0,.472.472,0,0,1-.254-.418V9.8l-.573.721a.5.5,0,0,1-.36.164.514.514,0,0,1-.418-.221A.772.772,0,0,1,36.606,9.982Z"/><path class="k" d="M41.407,18.911V17.324a2.359,2.359,0,0,1,.535-1.44,6.347,6.347,0,0,1,1.317-1.276l1.573-1.145A6.873,6.873,0,0,0,46.166,12.2a2.2,2.2,0,0,0,.549-1.374,1.77,1.77,0,0,0-.45-1.2,1.659,1.659,0,0,0-1.319-.515,1.736,1.736,0,0,0-1.2.407,1.523,1.523,0,0,0-.459,1.2.566.566,0,0,1-.254.455,1.06,1.06,0,0,1-.664.2q-.786,0-.786-.967a2.575,2.575,0,0,1,.991-2.089,3.845,3.845,0,0,1,4.849.1,3.017,3.017,0,0,1,1.024,2.36,3.355,3.355,0,0,1-.549,1.84,5.654,5.654,0,0,1-1.327,1.455q-.778.6-1.556,1.128a9.656,9.656,0,0,0-1.327,1.071,1.522,1.522,0,0,0-.549,1.047v.621h4.816a.5.5,0,0,1,.4.221.841.841,0,0,1,.172.532.916.916,0,0,1-.171.549.488.488,0,0,1-.4.237H42.171a.932.932,0,0,1-.513-.164A.479.479,0,0,1,41.407,18.911Z"/><path class="k" d="M49.369,16.7a.747.747,0,0,1,.18-.582.96.96,0,0,1,.623-.156,1.172,1.172,0,0,1,.713.156.613.613,0,0,1,.188.5,1.271,1.271,0,0,0,.5,1.007,2.178,2.178,0,0,0,1.434.418,2.044,2.044,0,0,0,1.5-.483,2.121,2.121,0,0,0,.483-1.548V15.7q0-1.786-2-1.786-.557,0-.557-.68,0-.7.557-.7a1.885,1.885,0,0,0,1.27-.377,1.844,1.844,0,0,0,.434-1.425,1.47,1.47,0,0,0-1.638-1.688,1.844,1.844,0,0,0-1.311.382,1.272,1.272,0,0,0-.393.951q0,.7-.819.7a1.117,1.117,0,0,1-.729-.164.886.886,0,0,1-.172-.639,2.532,2.532,0,0,1,.164-.885,3.048,3.048,0,0,1,.532-.885,2.609,2.609,0,0,1,1.081-.721,4.554,4.554,0,0,1,1.663-.279q3.293,0,3.293,2.933a3.862,3.862,0,0,1-.352,1.716,2.1,2.1,0,0,1-.958,1.013A2.485,2.485,0,0,1,56.725,15.7v.311a3.326,3.326,0,0,1-1.032,2.708,4.086,4.086,0,0,1-2.7.859,3.753,3.753,0,0,1-2.695-.885A2.7,2.7,0,0,1,49.369,16.7Z"/><path class="k" d="M57.363,16.148a.746.746,0,0,1,.1-.36l3.965-7.806a.8.8,0,0,1,.754-.475,1.035,1.035,0,0,1,.573.2.566.566,0,0,1,.295.475.637.637,0,0,1-.082.262l-3.375,6.733H62V12.9q0-.577.868-.577a1.2,1.2,0,0,1,.614.148.47.47,0,0,1,.254.428v2.274h.8a.489.489,0,0,1,.434.243,1.031,1.031,0,0,1,.156.567.914.914,0,0,1-.18.543.508.508,0,0,1-.41.251h-.8v2.126a.474.474,0,0,1-.262.421,1.269,1.269,0,0,1-1.22,0A.475.475,0,0,1,62,18.907V16.781h-4.03a.591.591,0,0,1-.434-.17A.623.623,0,0,1,57.363,16.148Z"/></g></g></svg>