<svg xmlns="http://www.w3.org/2000/svg" width="51" height="51" viewBox="0 0 51 51">
  <g id="icon-bus" transform="translate(-238 -603)">
    <circle id="Ellipse_12" data-name="Ellipse 12" cx="25.5" cy="25.5" r="25.5" transform="translate(238 603)" fill="#2fb654"/>
    <path id="bus_1_" data-name="bus (1)" d="M30.909,1.676A3.016,3.016,0,0,0,28.2,0H3.032A3.036,3.036,0,0,0,0,3.032V19.2a3.036,3.036,0,0,0,3.032,3.032H4.217a3.032,3.032,0,0,0,5.717,0H24.566a3.032,3.032,0,0,0,5.717,0h1.184A3.036,3.036,0,0,0,34.5,19.2V9.1a1.009,1.009,0,0,0-.107-.452Zm-8.538,8.431V6.064h4.043v4.043Zm-8.221,0V6.064h6.2v4.043Zm6.2,2.021v8.086h-6.2V12.129ZM2.021,10.107V6.064H6.064v4.043ZM8.086,6.064h4.043v4.043H8.086Zm20.35,0h2.408l1.635,3.271v.772H28.435ZM3.032,2.021H28.2a1,1,0,0,1,.9.559l.731,1.463H2.021V3.032A1.012,1.012,0,0,1,3.032,2.021ZM2.021,19.2V12.129H12.129v8.086h-2.2a3.032,3.032,0,0,0-5.717,0H3.032A1.012,1.012,0,0,1,2.021,19.2Zm5.054,3.032a1.011,1.011,0,1,1,1.011-1.011A1.012,1.012,0,0,1,7.075,22.236Zm20.35,0a1.011,1.011,0,1,1,1.011-1.011A1.012,1.012,0,0,1,27.425,22.236Zm4.043-2.021H30.283a3.032,3.032,0,0,0-5.717,0h-2.2V12.129H32.478v4.043H31.468a1.011,1.011,0,1,0,0,2.021h1.011V19.2A1.012,1.012,0,0,1,31.468,20.215Zm0,0" transform="translate(246 616)" fill="#fff"/>
  </g>
</svg>
