<svg xmlns="http://www.w3.org/2000/svg" width="51" height="51" viewBox="0 0 51 51">
  <g id="icon-pvh" transform="translate(-764 -505)">
    <circle id="Ellipse_11" data-name="Ellipse 11" cx="25.5" cy="25.5" r="25.5" transform="translate(764 505)" fill="#2fb654"/>
    <g id="taxi-van" transform="translate(771 447.003)">
      <path id="Path_1430" data-name="Path 1430" d="M38.773,88.964a3.432,3.432,0,0,0-1.936-3.078l-2.9-1.392L30.493,73.64h-1.66V71H26.557V73.64H3.414A3.418,3.418,0,0,0,0,77.054V95.962H4.5a4.172,4.172,0,0,0,8.028,0H25.691a4.172,4.172,0,0,0,8.028,0h5.054v-7Zm-7.331-4.816h-4.81V80.415h3.624ZM8.516,96.721a1.9,1.9,0,1,1,1.9-1.9A1.9,1.9,0,0,1,8.516,96.721Zm21.189,0a1.9,1.9,0,1,1,1.9-1.9A1.9,1.9,0,0,1,29.705,96.721ZM36.5,93.686H33.719a4.172,4.172,0,0,0-8.028,0H19.858L12.6,86.424H22.08V78.139H4.552v8.285H9.378l7.261,7.261H12.53a4.172,4.172,0,0,0-8.028,0H2.276V77.054a1.139,1.139,0,0,1,1.138-1.138H28.827l.706,2.223H24.356v8.285h8.286V86.4l3.21,1.542a1.144,1.144,0,0,1,.645,1.026v4.722ZM6.829,84.148V80.415H19.8v3.733Z" transform="translate(0 -1)" fill="#f1f1f1"/>
    </g>
  </g>
</svg>
