<svg xmlns="http://www.w3.org/2000/svg" width="64.615" height="66" viewBox="0 0 64.615 66">
  <g id="icon-24-hours" transform="translate(-5.373 0)">
    <circle id="Ellipse_1" data-name="Ellipse 1" cx="32.307" cy="32.307" r="32.307" transform="translate(5.373 1.386)" fill="#0ed2b3"/>
    <path id="Path_1" data-name="Path 1" d="M126.792,93.014a32.308,32.308,0,0,1-56.209,21.738A32.307,32.307,0,0,0,115.053,68.1,32.242,32.242,0,0,1,126.792,93.014Z" transform="translate(-56.804 -59.321)" fill="#0ab69f"/>
    <circle id="Ellipse_2" data-name="Ellipse 2" cx="24.891" cy="24.891" r="24.891" transform="translate(12.789 8.802)" fill="#f9f3f1"/>
    <g id="Group_5" data-name="Group 5" transform="translate(14.527 10.539)">
      <path id="Path_2" data-name="Path 2" d="M175.435,180.912a5.024,5.024,0,0,1,5.326,4.953c0,5.351-8.064,7.093-8.064,9.955v.946h7.317a1.069,1.069,0,0,1,.871,1.145c0,.622-.423,1.195-.871,1.195h-8.86c-.5,0-1.17-.348-1.17-.871V195.82c0-4.032,8.138-6.048,8.138-9.881a2.533,2.533,0,0,0-2.688-2.613,2.3,2.3,0,0,0-2.514,2.464c0,.5-.523,1-1.394,1-.7,0-1.195-.348-1.195-1.469C170.333,182.654,172.722,180.912,175.435,180.912Z" transform="translate(-157.918 -168.131)" fill="#596c76"/>
      <path id="Path_3" data-name="Path 3" d="M262.367,195.024h-6.122a.9.9,0,0,1-.921-.971,1.135,1.135,0,0,1,.149-.548l6.023-11.872a1.261,1.261,0,0,1,1.145-.722c.5,0,1.319.4,1.319,1.02a.915.915,0,0,1-.124.4l-5.127,10.229h3.659v-3.435c0-.622.647-.871,1.319-.871.647,0,1.319.249,1.319.871v3.435h1.219c.6,0,.9.622.9,1.244,0,.6-.423,1.22-.9,1.22h-1.219v3.211c0,.572-.672.871-1.319.871-.672,0-1.319-.3-1.319-.871Z" transform="translate(-232.257 -168.131)" fill="#596c76"/>
      <path id="Path_4" data-name="Path 4" d="M249.263,87.716a1,1,0,0,1-1-1V82.756a1,1,0,1,1,1.993,0v3.963a1,1,0,0,1-1,1Z" transform="translate(-226.109 -81.759)" fill="#596c76"/>
      <path id="Path_5" data-name="Path 5" d="M249.263,400.737a1,1,0,0,1-1-1v-3.963a1,1,0,1,1,1.993,0v3.963a1,1,0,0,1-1,1Z" transform="translate(-226.109 -354.43)" fill="#596c76"/>
      <path id="Path_6" data-name="Path 6" d="M394.363,255.636H390.4a1,1,0,0,1,0-1.993h3.964a1,1,0,0,1,0,1.993Z" transform="translate(-349.053 -231.486)" fill="#596c76"/>
      <path id="Path_7" data-name="Path 7" d="M81.342,255.636H77.379a1,1,0,0,1,0-1.993h3.963a1,1,0,0,1,0,1.993Z" transform="translate(-76.382 -231.486)" fill="#596c76"/>
      <path id="Path_8" data-name="Path 8" d="M168.847,116.353a1,1,0,0,1-.864-.5l-1.047-1.814a1,1,0,0,1,1.726-1l1.047,1.814a1,1,0,0,1-.862,1.5Z" transform="translate(-155.146 -108.576)" fill="#596c76"/>
      <path id="Path_9" data-name="Path 9" d="M323.647,384.473a1,1,0,0,1-.864-.5l-1.047-1.814a1,1,0,1,1,1.726-1l1.047,1.814a1,1,0,0,1-.862,1.5Z" transform="translate(-289.992 -342.135)" fill="#596c76"/>
      <path id="Path_10" data-name="Path 10" d="M109.977,175.221a.992.992,0,0,1-.5-.134l-1.814-1.047a1,1,0,0,1,1-1.726l1.814,1.047a1,1,0,0,1-.5,1.86Z" transform="translate(-103.199 -160.524)" fill="#596c76"/>
      <path id="Path_11" data-name="Path 11" d="M378.1,330.021a.992.992,0,0,1-.5-.134l-1.814-1.047a1,1,0,1,1,1-1.726l1.814,1.047a1,1,0,0,1-.5,1.86Z" transform="translate(-336.758 -295.369)" fill="#596c76"/>
      <path id="Path_12" data-name="Path 12" d="M108.166,330.021a1,1,0,0,1-.5-1.86l1.814-1.047a1,1,0,0,1,1,1.726l-1.814,1.047A.992.992,0,0,1,108.166,330.021Z" transform="translate(-103.199 -295.369)" fill="#596c76"/>
      <path id="Path_13" data-name="Path 13" d="M376.288,175.222a1,1,0,0,1-.5-1.86l1.814-1.047a1,1,0,0,1,1,1.726l-1.814,1.047A.994.994,0,0,1,376.288,175.222Z" transform="translate(-336.759 -160.525)" fill="#596c76"/>
      <path id="Path_14" data-name="Path 14" d="M167.8,384.473a1,1,0,0,1-.862-1.5l1.047-1.814a1,1,0,1,1,1.726,1l-1.047,1.814A1,1,0,0,1,167.8,384.473Z" transform="translate(-155.146 -342.134)" fill="#596c76"/>
    </g>
    <path id="Path_15" data-name="Path 15" d="M325.771,13.4,323.686,2.755a3.408,3.408,0,1,0-6.646,1.5l1.319,5.138a.948.948,0,0,1-.857,1.182l-5.293.341a3.409,3.409,0,1,0,.635,6.785l10.769-1.324A2.513,2.513,0,0,0,325.771,13.4Z" transform="translate(-264.504 0)" fill="#01998d"/>
    <path id="Path_16" data-name="Path 16" d="M323.614,16.383l-10.769,1.324a3.456,3.456,0,0,1-.42.025,3.408,3.408,0,0,1-3.323-4.143,2.88,2.88,0,0,0,2.486,1.434,2.958,2.958,0,0,0,.356-.023l9.107-1.119a2.126,2.126,0,0,0,1.827-2.517l-1.763-9.006A2.877,2.877,0,0,0,319.236.19c.092-.031.185-.059.28-.082a3.407,3.407,0,0,1,4.173,2.651l2.085,10.647A2.513,2.513,0,0,1,323.614,16.383Z" transform="translate(-264.506 -0.004)" fill="#008b81"/>
  </g>
</svg>
