<svg xmlns="http://www.w3.org/2000/svg" width="50.999" height="51" viewBox="0 0 50.999 51">
  <g id="icon-airplane" transform="translate(-0.003)">
    <g id="Group_9879" data-name="Group 9879" transform="translate(0.003)">
      <path id="Path_1429" data-name="Path 1429" d="M25.5,0A25.5,25.5,0,1,0,51,25.5,25.5,25.5,0,0,0,25.5,0ZM37.909,16.908l-5.514,5.221,3.5,14.083L33.8,38.3,27.13,27.414l-.154-.154-6.865,6.5c-.039.039-.082.069-.122.106l-.22,5.012-7.644-7.644,5.01-.22c.037-.041.067-.084.106-.123l6.5-6.866-.055-.056L12.7,17.2l2.086-2.086,14.02,3.561,5.283-5.581a2.7,2.7,0,1,1,3.816,3.815Z" transform="translate(-0.003 0)" fill="#2fb654"/>
    </g>
  </g>
</svg>
