<svg xmlns="http://www.w3.org/2000/svg" width="12.055" height="12.055" viewBox="0 0 12.055 12.055"><defs><style>.a{stroke:#000;stroke-width:0.3px;}</style></defs><g transform="translate(0.15 0.15)"><path class="a" d="M5.878,0a5.878,5.878,0,1,0,5.878,5.878A5.884,5.884,0,0,0,5.878,0Zm0,10.5A4.627,4.627,0,1,1,10.5,5.878,4.632,4.632,0,0,1,5.878,10.5Z"/><path class="a" d="M47.675,20.49H45.034V17.314a.484.484,0,0,0-.968,0v3.66a.484.484,0,0,0,.484.484h3.125a.484.484,0,1,0,0-.968Z" transform="translate(-38.735 -14.794)"/></g></svg>