<svg xmlns="http://www.w3.org/2000/svg" width="52.852" height="66" viewBox="0 0 52.852 66">
  <g id="icon-insurance_" data-name="icon-insurance " transform="translate(-51)">
    <g id="Group_6" data-name="Group 6" transform="translate(51 0)">
      <path id="Path_17" data-name="Path 17" d="M77.426,66a1.934,1.934,0,0,1-.582-.09A36.979,36.979,0,0,1,51,30.648V10.957a1.934,1.934,0,0,1,1.934-1.934A14.949,14.949,0,0,0,66.2,1.032,1.934,1.934,0,0,1,67.906,0H86.945a1.934,1.934,0,0,1,1.71,1.032,14.945,14.945,0,0,0,13.251,7.992,1.944,1.944,0,0,1,1.945,1.934V30.648A36.979,36.979,0,0,1,78.008,65.91a1.931,1.931,0,0,1-.582.09Z" transform="translate(-51 0)" fill="#9ddff6"/>
      <path id="Path_18" data-name="Path 18" d="M280.481,9.023A14.945,14.945,0,0,1,267.23,1.032,1.933,1.933,0,0,0,265.519,0H256V66a1.934,1.934,0,0,0,.582-.09,36.979,36.979,0,0,0,25.844-35.263V10.957A1.944,1.944,0,0,0,280.481,9.023Z" transform="translate(-229.574 0)" fill="#6ba7ff"/>
      <path id="Path_19" data-name="Path 19" d="M129.691,110.039a1.934,1.934,0,0,1-.744-.149A29.136,29.136,0,0,1,111,82.913V69.723a1.934,1.934,0,0,1,1.33-1.837,22.588,22.588,0,0,0,10.453-7.176,1.933,1.933,0,0,1,1.5-.71H135.1a1.933,1.933,0,0,1,1.5.71,22.588,22.588,0,0,0,10.453,7.177,1.934,1.934,0,0,1,1.33,1.837V82.913a29.136,29.136,0,0,1-17.947,26.977A1.933,1.933,0,0,1,129.691,110.039Z" transform="translate(-103.266 -52.266)" fill="#f5f5ff"/>
      <path id="Path_20" data-name="Path 20" d="M273.362,67.887a22.588,22.588,0,0,1-10.453-7.177,1.934,1.934,0,0,0-1.5-.71H256v50.039a1.933,1.933,0,0,0,.744-.149,29.136,29.136,0,0,0,17.947-26.977V69.724a1.934,1.934,0,0,0-1.33-1.837Z" transform="translate(-229.574 -52.266)" fill="#e2e7fa"/>
    </g>
    <path id="Path_21" data-name="Path 21" d="M178.95,209.322a1.927,1.927,0,0,1-1.367-.566l-6.016-6.016a1.934,1.934,0,1,1,2.734-2.734l4.648,4.648,10.664-10.664a1.934,1.934,0,0,1,2.734,2.734l-12.031,12.031A1.928,1.928,0,0,1,178.95,209.322Z" transform="translate(-104.532 -168.49)" fill="#6b61b1"/>
    <path id="Path_22" data-name="Path 22" d="M263.656,193.99,256,201.646v5.469l10.391-10.391a1.934,1.934,0,0,0-2.734-2.734Z" transform="translate(-178.574 -168.49)" fill="#453d81"/>
  </g>
</svg>
