<svg id="icon-headset" xmlns="http://www.w3.org/2000/svg" xmlns:xlink="http://www.w3.org/1999/xlink" width="65" height="65" viewBox="0 0 65 65">
  <defs>
    <linearGradient id="linear-gradient" y1="-24.543" x2="1" y2="-24.543" gradientUnits="objectBoundingBox">
      <stop offset="0" stop-color="#00f1ff"/>
      <stop offset="0.231" stop-color="#00d8ff"/>
      <stop offset="0.514" stop-color="#00c0ff"/>
      <stop offset="0.777" stop-color="#00b2ff"/>
      <stop offset="1" stop-color="#00adff"/>
    </linearGradient>
  </defs>
  <path id="Path_23" data-name="Path 23" d="M65,32.5A32.5,32.5,0,1,1,32.5,0,32.5,32.5,0,0,1,65,32.5Zm0,0" fill="url(#linear-gradient)"/>
  <g id="Group_7" data-name="Group 7" transform="translate(8.379 8.707)">
    <path id="Path_24" data-name="Path 24" d="M77.318,87.7h-3.7a16.549,16.549,0,0,1,16.5-15.3A16.616,16.616,0,0,1,105.645,83.2a1.9,1.9,0,0,0,3.572-1.321,20.357,20.357,0,0,0-39.449,6.837A7.556,7.556,0,0,0,66,95.248v6.4a7.561,7.561,0,0,0,7.553,7.552h3.765a1.9,1.9,0,0,0,1.9-1.9V89.6a1.9,1.9,0,0,0-1.9-1.9Zm-1.9,17.7H73.552a3.748,3.748,0,0,1-3.744-3.744v-6.4A3.748,3.748,0,0,1,73.552,91.5h1.861Zm0,0" transform="translate(-65.999 -68.586)" fill="#fff"/>
    <path id="Path_25" data-name="Path 25" d="M246.674,219.113h-3.765a1.9,1.9,0,0,0-1.9,1.9v19.675a1.864,1.864,0,0,1-1.861,1.861H233.4v.081a3.765,3.765,0,1,0,0,3.646v.081h5.743a5.676,5.676,0,0,0,5.67-5.67v-.073h1.861a7.561,7.561,0,0,0,7.553-7.553v-6.4a7.561,7.561,0,0,0-7.553-7.553Zm3.744,13.954a3.748,3.748,0,0,1-3.744,3.744h-1.861V222.921h1.861a3.748,3.748,0,0,1,3.744,3.744Zm0,0" transform="translate(-205.984 -200.003)" fill="#fff"/>
  </g>
</svg>
