<svg xmlns="http://www.w3.org/2000/svg" width="51" height="51" viewBox="0 0 51 51">
  <g id="icon-cs" transform="translate(-238 -603)">
    <circle id="Ellipse_12" data-name="Ellipse 12" cx="25.5" cy="25.5" r="25.5" transform="translate(238 603)" fill="#2fb654"/>
    <g id="friends_1_" data-name="friends (1)" transform="translate(247 611.51)">
      <path id="Path_1469" data-name="Path 1469" d="M28.7,120.18a4.435,4.435,0,1,0-6.89,0,6.208,6.208,0,0,0-1.649.811,4.43,4.43,0,0,0-7.315,0,6.207,6.207,0,0,0-1.649-.811,4.435,4.435,0,1,0-6.89,0A6.189,6.189,0,0,0,0,126.068v5.489a.969.969,0,0,0,.969.969H8.75v5.136a.969.969,0,0,0,.969.969H23.281a.969.969,0,0,0,.969-.969v-5.136h7.781a.969.969,0,0,0,.969-.969v-5.489a6.189,6.189,0,0,0-4.3-5.888ZM25.25,114.9a2.5,2.5,0,0,1,0,4.994h0a2.5,2.5,0,0,1,0-4.994ZM16.5,121a2.5,2.5,0,1,1-2.5,2.5A2.5,2.5,0,0,1,16.5,121ZM7.75,114.9a2.5,2.5,0,0,1,0,4.994h0a2.5,2.5,0,0,1,0-4.994ZM1.937,126.068a4.246,4.246,0,0,1,4.241-4.241H9.322a4.252,4.252,0,0,1,2.787,1.046,4.448,4.448,0,0,0,.943,3.413,6.2,6.2,0,0,0-4.1,4.3H6.07v-3.625a.969.969,0,1,0-1.937,0v3.625h-2.2Zm20.375,10.626H20.375v-2.863a.969.969,0,1,0-1.937,0v2.863H14.562v-2.863a.969.969,0,1,0-1.937,0v2.863H10.688v-4.521a4.247,4.247,0,0,1,4.241-4.241h3.143a4.246,4.246,0,0,1,4.241,4.241Zm8.75-6.1h-2.2v-3.625a.969.969,0,0,0-1.937,0v3.625H24.044a6.2,6.2,0,0,0-4.1-4.3,4.448,4.448,0,0,0,.943-3.413,4.252,4.252,0,0,1,2.787-1.046h3.143a4.246,4.246,0,0,1,4.241,4.241Z" transform="translate(0 -105.205)" fill="#fff"/>
      <path id="Path_1470" data-name="Path 1470" d="M154.514,15.5a.969.969,0,0,0,1.764-.8l-1.292-2.842a.969.969,0,1,0-1.764.8Z" transform="translate(-143.246 -10.103)" fill="#fff"/>
      <path id="Path_1471" data-name="Path 1471" d="M308.405,15.984a.969.969,0,0,0,1.283-.481l1.292-2.842a.969.969,0,0,0-1.764-.8L307.924,14.7A.969.969,0,0,0,308.405,15.984Z" transform="translate(-287.957 -10.104)" fill="#fff"/>
      <path id="Path_1472" data-name="Path 1472" d="M241.459,5.258a.969.969,0,0,0,.969-.969V1.459a.969.969,0,1,0-1.937,0V4.29A.969.969,0,0,0,241.459,5.258Z" transform="translate(-224.959)" fill="#fff"/>
    </g>
  </g>
</svg>
