<svg xmlns="http://www.w3.org/2000/svg" width="78.078" height="55.667" viewBox="0 0 78.078 55.667">
  <g id="icon-money" transform="translate(0 -71.329)">
    <path id="Path_49" data-name="Path 49" d="M84.572,91.805,58.6,90.987l-3.666-8.137L58.27,71.885a.785.785,0,0,1,.98-.523L96.972,82.851l.171,3.586a.785.785,0,0,1,.523.98L85.552,91.283a.786.786,0,0,1-.98.523Z" transform="translate(-46.301)" fill="#95d6a4"/>
    <path id="Path_50" data-name="Path 50" d="M2.879,171.427a.786.786,0,0,0,.523.98l43.562,13.266h5.354l11.262-36.981a.786.786,0,0,0-.523-.98l-9.988-3.042H11.027Z" transform="translate(-2.398 -61.82)" fill="#78c2a4"/>
    <path id="Path_51" data-name="Path 51" d="M107.371,124.528l-.144-3.343L92.92,116.828a.474.474,0,0,0-.474.122,10.648,10.648,0,0,1-5.491,2.927.475.475,0,0,0-.366.325l-.3.982,3.668,7.493C89.906,128.846,107.539,124.579,107.371,124.528Z" transform="translate(-72.734 -38.334)" fill="#b3e59f"/>
    <path id="Path_52" data-name="Path 52" d="M53.006,161.786a.474.474,0,0,0,.122.474,10.648,10.648,0,0,1,2.927,5.491.474.474,0,0,0,.325.366l49.592,15.1a.474.474,0,0,0,.474-.122,10.648,10.648,0,0,1,5.491-2.927.474.474,0,0,0,.366-.325l5.511-18.1a.474.474,0,0,0-.122-.474,10.648,10.648,0,0,1-2.927-5.491.475.475,0,0,0-.325-.366L79.155,144.671H58.218Z" transform="translate(-44.662 -61.82)" fill="#95d6a4"/>
    <path id="Path_53" data-name="Path 53" d="M81.352,204.985l-75.086-.534.12-37.971,1.095-1.808H82.574a.786.786,0,0,1,.785.785v37.861Z" transform="translate(-5.282 -78.678)" fill="#95d6a4"/>
    <path id="Path_54" data-name="Path 54" d="M2.985,203.317a.786.786,0,0,1-.785-.785V164.671H.785a.786.786,0,0,0-.785.785v39.432a.786.786,0,0,0,.785.785H77.292a.786.786,0,0,0,.785-.785v-1.571Z" transform="translate(0 -78.678)" fill="#78c2a4"/>
    <path id="Path_55" data-name="Path 55" d="M93.579,202.671H35.073a.474.474,0,0,0-.418.255,10.649,10.649,0,0,1-4.4,4.4.474.474,0,0,0-.255.418v18.917a.474.474,0,0,0,.255.418,10.649,10.649,0,0,1,4.4,4.4.474.474,0,0,0,.418.255H93.579a.474.474,0,0,0,.418-.255,10.649,10.649,0,0,1,4.4-4.4.474.474,0,0,0,.255-.418V207.744a.474.474,0,0,0-.255-.418,10.649,10.649,0,0,1-4.4-4.4A.475.475,0,0,0,93.579,202.671Z" transform="translate(-25.287 -110.709)" fill="#b3e59f"/>
    <path id="Path_56" data-name="Path 56" d="M375.571,265.313a3.145,3.145,0,0,0-3.971-3.031c-1.333.364-1.886,1.64-1.886,3.088,0,1.735.832,2.5,2.567,2.5,1.412,0,2.755-.351,3.151-1.632A3.137,3.137,0,0,0,375.571,265.313Z" transform="translate(-311.632 -160.861)" fill="#95d6a4"/>
    <path id="Path_57" data-name="Path 57" d="M98.3,265.313a3.145,3.145,0,0,0-3.971-3.031,2.843,2.843,0,0,0-1.936,3.031c0,1.735.872,2.508,2.607,2.508,1.427,0,2.791-.318,3.174-1.622A3.146,3.146,0,0,0,98.3,265.313Z" transform="translate(-77.879 -160.861)" fill="#95d6a4"/>
    <path id="Path_58" data-name="Path 58" d="M372.341,266.868a3.133,3.133,0,0,1-3.028-3.971,3.14,3.14,0,1,0,3.856,3.856A3.134,3.134,0,0,1,372.341,266.868Z" transform="translate(-309.345 -161.473)" fill="#78c2a4"/>
    <path id="Path_59" data-name="Path 59" d="M95.341,266.868a3.133,3.133,0,0,1-3.028-3.971,3.14,3.14,0,1,0,3.856,3.856A3.134,3.134,0,0,1,95.341,266.868Z" transform="translate(-75.861 -161.473)" fill="#78c2a4"/>
    <g id="Group_9" data-name="Group 9" transform="translate(11.39 111.178)">
      <path id="Path_60" data-name="Path 60" d="M83.1,327.345H73.678a1.178,1.178,0,1,1,0-2.356H83.1a1.178,1.178,0,1,1,0,2.356Z" transform="translate(-72.5 -324.989)" fill="#95d6a4"/>
    </g>
    <g id="Group_10" data-name="Group 10" transform="translate(54.906 111.178)">
      <path id="Path_61" data-name="Path 61" d="M360.1,327.345h-9.426a1.178,1.178,0,1,1,0-2.356H360.1a1.178,1.178,0,1,1,0,2.356Z" transform="translate(-349.5 -324.989)" fill="#95d6a4"/>
    </g>
    <path id="Path_62" data-name="Path 62" d="M200.229,211.673c0,8.631-5.674,15.627-12.674,15.627s-11.526-15.721-11.526-15.721,4.526-15.533,11.526-15.533S200.229,203.042,200.229,211.673Z" transform="translate(-148.375 -105.124)" fill="#95d6a4"/>
    <path id="Path_63" data-name="Path 63" d="M182.909,227.19a10.059,10.059,0,0,1-1.515.112c-7,0-12.675-7-12.675-15.628s5.675-15.628,12.675-15.628a10.058,10.058,0,0,1,1.515.112c-6.287.921-11.16,7.517-11.16,15.515S176.622,226.269,182.909,227.19Z" transform="translate(-142.214 -105.125)" fill="#78c2a4"/>
  </g>
</svg>
