<svg xmlns="http://www.w3.org/2000/svg" width="51" height="51" viewBox="0 0 51 51">
  <g id="icon-confetti" transform="translate(-774 -1449)">
    <g id="Group_9882" data-name="Group 9882" transform="translate(10 944)">
      <circle id="Ellipse_11" data-name="Ellipse 11" cx="25.5" cy="25.5" r="25.5" transform="translate(764 505)" fill="#2fb654"/>
    </g>
    <g id="confetti" transform="translate(784 1458.999)">
      <path id="Path_1439" data-name="Path 1439" d="M10.2,153a.911.911,0,0,0-.82.457c-.035.061.324-.706-9.3,19.988a.908.908,0,0,0,1.214,1.2c20.864-9.944,19.462-9.273,19.534-9.319a.905.905,0,0,0,.4-.561,3.218,3.218,0,0,0,.024-.688A11.092,11.092,0,0,0,10.2,153Zm-.574,4.224a11.124,11.124,0,0,0,7.619,7.808L2.8,171.924Zm1.461-2.363a9.279,9.279,0,0,1,8.332,8.749A9.279,9.279,0,0,1,11.091,154.863Z" transform="translate(0 -143.737)" fill="#fff"/>
      <path id="Path_1440" data-name="Path 1440" d="M122.808,361.733a.908.908,0,1,0-.627,1.046A.908.908,0,0,0,122.808,361.733Z" transform="translate(-113.684 -339.144)" fill="#fff"/>
      <path id="Path_1441" data-name="Path 1441" d="M146.81,289.739a.908.908,0,1,0-.627,1.046A.908.908,0,0,0,146.81,289.739Z" transform="translate(-136.233 -271.509)" fill="#fff"/>
      <path id="Path_1442" data-name="Path 1442" d="M186.826,337.831a.908.908,0,1,0-.727.98A.909.909,0,0,0,186.826,337.831Z" transform="translate(-173.813 -316.607)" fill="#fff"/>
      <path id="Path_1443" data-name="Path 1443" d="M376.466,129.025l-.727.182a2.5,2.5,0,0,0-1.9,2.432v.993a.69.69,0,0,1-.879.663,2.511,2.511,0,0,0-2.992,1.423l-.9,2.1a.908.908,0,0,0,1.669.716l.9-2.1a.691.691,0,0,1,.824-.392,2.505,2.505,0,0,0,3.195-2.41v-.993a.689.689,0,0,1,.523-.669l.727-.182a.908.908,0,0,0-.441-1.762Z" transform="translate(-346.655 -121.187)" fill="#fff"/>
      <path id="Path_1444" data-name="Path 1444" d="M317.6,5.343l1.152-2.3a1.55,1.55,0,0,1,1.2-.847c.183-.023-.675.1,2.646-.384a.908.908,0,1,0-.261-1.8l-2.62.38a3.363,3.363,0,0,0-2.586,1.835l-1.152,2.3a1.545,1.545,0,0,1-1.389.859,3.371,3.371,0,0,0-3.336,3.846l.083.581a.908.908,0,1,0,1.8-.257l-.083-.581a1.554,1.554,0,0,1,1.538-1.773A3.351,3.351,0,0,0,317.6,5.343Z" transform="translate(-292.369 0)" fill="#fff"/>
      <path id="Path_1445" data-name="Path 1445" d="M207.067,8.058a.908.908,0,1,0,1.687-.675.857.857,0,0,1,.8-1.176h.219a2.687,2.687,0,0,0,2.647-2.3l.268-1.874a.908.908,0,0,0-1.8-.257l-.268,1.874a.862.862,0,0,1-.849.736h-.219A2.675,2.675,0,0,0,207.067,8.058Z" transform="translate(-194.348 -0.938)" fill="#fff"/>
      <path id="Path_1446" data-name="Path 1446" d="M337.034,10.094a.908.908,0,1,0,.627-1.046A.909.909,0,0,0,337.034,10.094Z" transform="translate(-316.613 -8.463)" fill="#fff"/>
      <path id="Path_1447" data-name="Path 1447" d="M370.776,145.644a.908.908,0,1,0-.521,1.1A.908.908,0,0,0,370.776,145.644Z" transform="translate(-346.658 -136.22)" fill="#fff"/>
      <path id="Path_1448" data-name="Path 1448" d="M458.776,73.644a.908.908,0,1,0-.521,1.1A.908.908,0,0,0,458.776,73.644Z" transform="translate(-429.33 -68.579)" fill="#fff"/>
      <path id="Path_1449" data-name="Path 1449" d="M426.811,273.739a.908.908,0,1,0-.627,1.046A.908.908,0,0,0,426.811,273.739Z" transform="translate(-399.28 -256.478)" fill="#fff"/>
      <path id="Path_1450" data-name="Path 1450" d="M258.778,121.647a.908.908,0,1,0-.521,1.1A.908.908,0,0,0,258.778,121.647Z" transform="translate(-241.441 -113.676)" fill="#fff"/>
      <path id="Path_1451" data-name="Path 1451" d="M193.034,2.093a.908.908,0,1,0,.627-1.046A.909.909,0,0,0,193.034,2.093Z" transform="translate(-181.331 -0.946)" fill="#fff"/>
    </g>
  </g>
</svg>
