<svg xmlns="http://www.w3.org/2000/svg" width="51" height="51" viewBox="0 0 51 51">
  <g id="icon-wheelchair" transform="translate(-774 -1274)">
    <path id="Path_1438" data-name="Path 1438" d="M25.5,0A25.5,25.5,0,1,0,51,25.5,25.529,25.529,0,0,0,25.5,0Zm9.036,40.07A12.024,12.024,0,1,1,17.793,22.908,1.494,1.494,0,1,1,19.71,25.2,9.035,9.035,0,1,0,32.29,38.1a1.494,1.494,0,0,1,2.245,1.972Zm7.716-1.007H40.118a1.493,1.493,0,0,1-1.294-.746L35.167,31.99H25.5A1.5,1.5,0,0,1,24.006,30.5V16.647a6.341,6.341,0,1,1,2.988,0v3.469h7.593a1.494,1.494,0,1,1,0,2.988H26.994V29H36.03a1.494,1.494,0,0,1,1.293.747l3.657,6.326h1.272a1.494,1.494,0,0,1,0,2.988Z" transform="translate(774 1274)" fill="#2fb654"/>
    <circle id="Ellipse_13" data-name="Ellipse 13" cx="3.415" cy="3.415" r="3.415" transform="translate(795.044 1282.839) rotate(-22.514)" fill="#2fb654"/>
  </g>
</svg>
