<svg xmlns="http://www.w3.org/2000/svg" width="65" height="65" viewBox="0 0 65 65">
  <g id="icon-filledoutline" transform="translate(-16 -16.004)">
    <path id="Path_26" data-name="Path 26" d="M84.145,315.948A16.645,16.645,0,0,0,76.7,309.52L64.083,304H46.75l-12.618,5.52a16.645,16.645,0,0,0-7.444,6.428A17.689,17.689,0,0,0,24,325.323v3.594H86.833v-3.594a17.689,17.689,0,0,0-2.689-9.375Z" transform="translate(-6.917 -248.997)" fill="#0296e5"/>
    <path id="Path_27" data-name="Path 27" d="M31.583,355.05v18H24V369.46a17.678,17.678,0,0,1,2.691-9.377A16.614,16.614,0,0,1,31.583,355.05Z" transform="translate(-6.917 -293.134)" fill="#0bafea"/>
    <path id="Path_28" data-name="Path 28" d="M439.583,369.46v3.594H432v-18a16.614,16.614,0,0,1,4.894,5.035A17.684,17.684,0,0,1,439.583,369.46Z" transform="translate(-359.667 -293.134)" fill="#0bafea"/>
    <path id="Path_29" data-name="Path 29" d="M206.083,328.917,209.333,304H192l3.25,24.917Z" transform="translate(-152.167 -248.997)" fill="#cbcbcb"/>
    <path id="Path_30" data-name="Path 30" d="M216.086,232,216,238.5l5.417,3.25,5.417-3.25-.086-6.5Z" transform="translate(-172.917 -186.747)" fill="#f6bb92"/>
    <path id="Path_31" data-name="Path 31" d="M171.25,142.5l-1.1-.366a3.148,3.148,0,0,1,.995-6.134h.1Z" transform="translate(-131.417 -103.747)" fill="#f6bb92"/>
    <path id="Path_32" data-name="Path 32" d="M320,142.5l1.1-.366a3.148,3.148,0,0,0-1-6.134H320Z" transform="translate(-262.833 -103.747)" fill="#f6bb92"/>
    <path id="Path_33" data-name="Path 33" d="M240,360h4.333v17.333H240Z" transform="translate(-193.667 -297.413)" fill="#0a6fa2"/>
    <path id="Path_34" data-name="Path 34" d="M206,143.92a6.939,6.939,0,0,1-10.661,0A14.393,14.393,0,0,1,192,134.706V128h17.333v6.706A14.393,14.393,0,0,1,206,143.92Z" transform="translate(-152.167 -96.83)" fill="#fdc9a6"/>
    <path id="Path_35" data-name="Path 35" d="M181.667,26.167,173,24l-8.667,2.167L160,30.5l4.333,7.583h17.333L186,30.5Z" transform="translate(-124.5 -6.913)" fill="#0a6fa2"/>
    <g id="Group_8" data-name="Group 8" transform="translate(31.167 32.253)">
      <path id="Path_36" data-name="Path 36" d="M243.25,144.666h-2.167a1.083,1.083,0,0,1-1.069-1.261l1.083-6.5a1.083,1.083,0,1,1,2.137.356l-.873,5.239h.888a1.083,1.083,0,0,1,0,2.167Z" transform="translate(-224.833 -135.999)" fill="#834b10"/>
      <ellipse id="Ellipse_3" data-name="Ellipse 3" cx="1.5" cy="0.5" rx="1.5" ry="0.5" transform="translate(11.833 2.751)" fill="#834b10"/>
      <ellipse id="Ellipse_4" data-name="Ellipse 4" cx="1.5" cy="0.5" rx="1.5" ry="0.5" transform="translate(19.833 2.751)" fill="#834b10"/>
      <path id="Path_37" data-name="Path 37" d="M145.333,360A17.333,17.333,0,0,0,128,377.333h4.333a13,13,0,1,1,26,0h4.333A17.333,17.333,0,0,0,145.333,360Z" transform="translate(-128 -329.667)" fill="#834b10"/>
    </g>
    <path id="Path_38" data-name="Path 38" d="M31.583,355.05v18H24V369.46a17.678,17.678,0,0,1,2.691-9.377A16.614,16.614,0,0,1,31.583,355.05Z" transform="translate(-6.917 -293.134)" fill="#0284c9"/>
    <path id="Path_39" data-name="Path 39" d="M439.583,369.46v3.594H432v-18a16.614,16.614,0,0,1,4.894,5.035A17.684,17.684,0,0,1,439.583,369.46Z" transform="translate(-359.667 -293.134)" fill="#0284c9"/>
    <path id="Path_40" data-name="Path 40" d="M82.023,399.583l2.39-2.39a4.393,4.393,0,0,0,1.155-2.041A2.537,2.537,0,0,0,83.106,392l-3.25,3.25-1.709,1.139a5.4,5.4,0,0,0-2.243,5.8l.7,2.808H87.439l.741-2.222a1.083,1.083,0,0,0-.685-1.37Z" transform="translate(-51.653 -325.08)" fill="#eaeae8"/>
    <path id="Path_41" data-name="Path 41" d="M194.167,272l6.5,4.333-3.25,5.417L192,276.333Z" transform="translate(-152.167 -221.33)" fill="#eaeae8"/>
    <path id="Path_42" data-name="Path 42" d="M262.5,272l-6.5,4.333,3.25,5.417,5.417-5.417Z" transform="translate(-207.5 -221.33)" fill="#eaeae8"/>
    <path id="Path_43" data-name="Path 43" d="M232,309.417l1.083,2.167h4.333l1.083-2.167L235.25,304Z" transform="translate(-186.75 -248.997)" fill="#0a6fa2"/>
    <path id="Path_44" data-name="Path 44" d="M350.214,399.583l-2.39-2.39a4.393,4.393,0,0,1-1.155-2.041A2.537,2.537,0,0,1,349.13,392l3.25,3.25,1.708,1.139a5.4,5.4,0,0,1,2.244,5.8l-.7,2.808H344.8l-.741-2.222a1.083,1.083,0,0,1,.685-1.37Z" transform="translate(-283.584 -325.08)" fill="#eaeae8"/>
    <path id="Path_45" data-name="Path 45" d="M194.322,95.581a26.058,26.058,0,0,1-14.976,0,4.694,4.694,0,0,1-3.346-4.5v-.841l7.208-.721a36.433,36.433,0,0,1,7.25,0l7.209.721v.841a4.694,4.694,0,0,1-3.345,4.5Z" transform="translate(-138.333 -63.407)" fill="#0296e5"/>
    <ellipse id="Ellipse_5" data-name="Ellipse 5" cx="2.5" cy="3" rx="2.5" ry="3" transform="translate(46 22.004)" fill="#fbb540"/>
    <path id="Path_46" data-name="Path 46" d="M234.673,210.523a8.32,8.32,0,0,1-2.6-.413,1.083,1.083,0,0,1,.677-2.058,6.185,6.185,0,0,0,3.837,0,1.083,1.083,0,1,1,.677,2.058A8.328,8.328,0,0,1,234.673,210.523Z" transform="translate(-186.173 -165.994)" fill="#834b10"/>
    <ellipse id="Ellipse_6" data-name="Ellipse 6" cx="1.5" cy="0.5" rx="1.5" ry="0.5" transform="translate(43 35.004)"/>
    <ellipse id="Ellipse_7" data-name="Ellipse 7" cx="1.5" cy="0.5" rx="1.5" ry="0.5" transform="translate(51 35.004)"/>
    <path id="Path_47" data-name="Path 47" d="M78.147,66.377a17.657,17.657,0,0,0-7.928-6.846L57.96,54.169l-1.991-3.983a1.076,1.076,0,0,0-1-.6l-.046-2.13a15.508,15.508,0,0,0,3.231-7.893l.454-.151a4.23,4.23,0,0,0,.354-7.891,5.755,5.755,0,0,0,1.456-3.846v-.012l0,0,2.022-3.539a1.083,1.083,0,0,0-.175-1.3l-4.333-4.333a1.083,1.083,0,0,0-.5-.284l-8.667-2.167a1.081,1.081,0,0,0-.525,0L39.571,18.2a1.083,1.083,0,0,0-.5.284l-4.333,4.333a1.083,1.083,0,0,0-.175,1.3l2.024,3.542v.011a5.755,5.755,0,0,0,1.456,3.847,4.23,4.23,0,0,0,.354,7.891l.454.151a15.508,15.508,0,0,0,3.231,7.891l-.048,2.131a1.076,1.076,0,0,0-1,.6L39.04,54.168,26.781,59.531a17.657,17.657,0,0,0-7.928,6.846A18.752,18.752,0,0,0,16,76.326V79.92A1.083,1.083,0,0,0,17.083,81H79.917A1.083,1.083,0,0,0,81,79.92V76.326a18.752,18.752,0,0,0-2.853-9.949Zm-6.893-3.865c0,.025,0,.05,0,.075v7.922c-.048-.034-.095-.068-.144-.1l-1.619-1.079-3.174-3.174a1.083,1.083,0,0,0-.766-.318,3.6,3.6,0,0,0-2.854,1.392,3.651,3.651,0,0,0-.354.548,18.41,18.41,0,0,0-5.207-4.132l.922-7.071,11.3,4.942a15.672,15.672,0,0,1,1.9,1ZM51.75,78.837V68.46a11.937,11.937,0,0,1,2.439,1l-1.223,9.377Zm4.444-8a11.882,11.882,0,0,1,3.578,5.216,2.2,2.2,0,0,0-.21.337,2.153,2.153,0,0,0-.118,1.654l.265.8H55.15ZM61.7,75a14.141,14.141,0,0,0-13.2-9.168,13.96,13.96,0,0,0-8.488,2.844A14.216,14.216,0,0,0,35.3,75l-2.058-.686a16.252,16.252,0,0,1,30.512,0ZM44.035,78.837,42.81,69.447a11.737,11.737,0,0,1,2.44-1V78.837Zm-6.6-2.451a2.192,2.192,0,0,0-.211-.339A12.031,12.031,0,0,1,40.8,70.824l1.045,8.013H37.29l.265-.8a2.153,2.153,0,0,0-.118-1.655ZM44.2,49.419a8.017,8.017,0,0,0,8.6,0l.03,1.4L48.5,53.7l-4.33-2.887Zm8.031,12.458.409-.817,3.04-3.04L55.07,62.7a18.137,18.137,0,0,0-2.838-.825ZM47,61.5l-.518-1.036L48.5,57.109l2.015,3.358L50,61.5Zm-2.643-.442.409.818a18.156,18.156,0,0,0-2.838.827l-.611-4.685Zm11.489-6.272-3.883,3.884-2-3.341,4.619-3.08ZM41.323,31.136a3.587,3.587,0,0,1-2.571-3.319l6.228-.623a4.327,4.327,0,0,0,7.038,0l6.228.623a3.587,3.587,0,0,1-2.57,3.319A24.906,24.906,0,0,1,41.323,31.136Zm7.177-4.3a2.167,2.167,0,1,1,2.167-2.167A2.167,2.167,0,0,1,48.5,26.837Zm9.75,10.38V33.585a2.063,2.063,0,0,1,0,3.632ZM40.387,20.232,48.5,18.2l8.113,2.028,3.536,3.536-1.114,1.95L52.812,25.1c.014-.14.021-.282.021-.426a4.333,4.333,0,1,0-8.667,0c0,.144.007.286.021.426l-6.222.622-1.114-1.95ZM37.667,35.4a2.066,2.066,0,0,1,1.083-1.816v3.632A2.061,2.061,0,0,1,37.667,35.4Zm3.25-2.127a27.146,27.146,0,0,0,6.32,1.055l-.888,5.33a1.083,1.083,0,0,0,1.069,1.261h2.167a1.083,1.083,0,1,0,0-2.167H48.7l.735-4.411a27.135,27.135,0,0,0,6.653-1.069v4.6A13.335,13.335,0,0,1,53,46.4a5.855,5.855,0,0,1-9,0,13.335,13.335,0,0,1-3.085-8.521Zm1.5,18.978,4.619,3.08-2,3.341-3.883-3.883ZM27.65,61.516l11.3-4.942.923,7.073a18.283,18.283,0,0,0-5.206,4.132,3.659,3.659,0,0,0-.355-.55,3.6,3.6,0,0,0-2.854-1.392,1.083,1.083,0,0,0-.766.317l-3.174,3.174-1.619,1.079c-.049.033-.1.067-.144.1V62.587c0-.025,0-.05,0-.075a15.67,15.67,0,0,1,1.9-1Zm-9.483,14.81a16.586,16.586,0,0,1,2.524-8.8,15.544,15.544,0,0,1,2.892-3.415v9.024a6.431,6.431,0,0,0-.383,4.241l.365,1.461h-5.4Zm7.632,2.51-.5-1.987A4.318,4.318,0,0,1,27.1,72.21L28.8,71.071a1.089,1.089,0,0,0,.165-.135l2.879-2.878a1.455,1.455,0,0,1,1.016,1.753,3.31,3.31,0,0,1-.87,1.537L29.6,73.737a1.083,1.083,0,0,0,.423,1.794L35.5,77.355l-.494,1.481Zm21.618,0V68.053c.358-.032.719-.05,1.083-.05s.725.018,1.083.051V78.837Zm14.577,0L61.5,77.355l5.472-1.824a1.083,1.083,0,0,0,.423-1.794l-2.389-2.389a3.31,3.31,0,0,1-.87-1.537,1.455,1.455,0,0,1,1.016-1.753l2.879,2.879a1.091,1.091,0,0,0,.165.135L69.9,72.211A4.318,4.318,0,0,1,71.7,76.85l-.5,1.986Zm16.839,0h-5.4l.366-1.461a6.437,6.437,0,0,0-.407-4.295.758.758,0,0,0,.024-.2V64.11a15.552,15.552,0,0,1,2.893,3.415,16.587,16.587,0,0,1,2.524,8.8Z" transform="translate(0)" fill="none"/>
    <path id="Path_48" data-name="Path 48" d="M232.072,210.11a8.369,8.369,0,0,0,5.19,0,1.083,1.083,0,0,0-.677-2.058,6.185,6.185,0,0,1-3.837,0,1.083,1.083,0,0,0-.677,2.058Z" transform="translate(-186.167 -165.994)"/>
  </g>
</svg>
