<svg xmlns="http://www.w3.org/2000/svg" xmlns:xlink="http://www.w3.org/1999/xlink" width="182" height="57" viewBox="0 0 182 57"><defs><style>.a{fill:none;}.b{clip-path:url(#a);}.c{fill:#fff;}</style><clipPath id="a"><rect class="a" width="182" height="57"/></clipPath></defs><g class="b"><path d="M176.7,57H5.7A5.7,5.7,0,0,1,0,51.3V5.7A5.7,5.7,0,0,1,5.7,0h171a5.7,5.7,0,0,1,5.7,5.7V51.3a5.7,5.7,0,0,1-5.7,5.7"/><path class="c" d="M34.124,22.807a8.014,8.014,0,0,1,3.815-6.722,8.193,8.193,0,0,0-6.461-3.493c-2.719-.286-5.354,1.626-6.739,1.626-1.412,0-3.545-1.6-5.842-1.55a8.6,8.6,0,0,0-7.24,4.416c-3.131,5.421-.8,13.386,2.2,17.768,1.5,2.145,3.255,4.541,5.549,4.457,2.246-.094,3.085-1.432,5.8-1.432,2.685,0,3.471,1.432,5.813,1.378,2.41-.04,3.929-2.155,5.375-4.321a17.688,17.688,0,0,0,2.458-5.006,7.744,7.744,0,0,1-4.725-7.122" transform="translate(4.322 5.339)"/><path class="c" d="M25.453,12.247a7.886,7.886,0,0,0,1.8-5.65,8.021,8.021,0,0,0-5.191,2.686,7.509,7.509,0,0,0-1.851,5.442,6.642,6.642,0,0,0,5.24-2.478" transform="translate(8.573 2.804)"/><path class="c" d="M54.415,36.6H51.277l-1.719-5.4H43.584l-1.637,5.4H38.891L44.81,18.213h3.657ZM49.04,28.933l-1.555-4.8q-.248-.737-.928-3.464H46.5q-.271,1.173-.872,3.464l-1.528,4.8Z" transform="translate(16.529 7.741)"/><path class="c" d="M64.276,28.361a7.534,7.534,0,0,1-1.828,5.347,5.344,5.344,0,0,1-4.064,1.744,4.061,4.061,0,0,1-3.765-1.881h-.056v6.984H51.618v-14.3q0-2.127-.11-4.365H54.1l.165,2.1h.054a5.242,5.242,0,0,1,8.389-.52,7.32,7.32,0,0,1,1.569,4.886m-3,.107a5.457,5.457,0,0,0-.874-3.191,3.016,3.016,0,0,0-2.565-1.311,3.059,3.059,0,0,0-1.976.724,3.343,3.343,0,0,0-1.16,1.9,3.842,3.842,0,0,0-.137.9V29.7a3.54,3.54,0,0,0,.888,2.442,2.939,2.939,0,0,0,2.3,1,3.016,3.016,0,0,0,2.592-1.283,5.649,5.649,0,0,0,.928-3.384" transform="translate(21.891 9.189)"/><path class="c" d="M74.978,28.361a7.529,7.529,0,0,1-1.83,5.347,5.337,5.337,0,0,1-4.063,1.744,4.06,4.06,0,0,1-3.765-1.881h-.054v6.984H62.32v-14.3q0-2.127-.11-4.365H64.8l.164,2.1h.054a5.244,5.244,0,0,1,8.39-.52,7.326,7.326,0,0,1,1.567,4.886m-3,.107a5.457,5.457,0,0,0-.874-3.191,3.014,3.014,0,0,0-2.564-1.311,3.063,3.063,0,0,0-1.979.724,3.347,3.347,0,0,0-1.157,1.9,3.842,3.842,0,0,0-.137.9V29.7a3.551,3.551,0,0,0,.883,2.442,2.946,2.946,0,0,0,2.309,1,3.014,3.014,0,0,0,2.591-1.283,5.659,5.659,0,0,0,.928-3.384" transform="translate(26.439 9.189)"/><path class="c" d="M86.54,31.527a4.9,4.9,0,0,1-1.633,3.819,7.233,7.233,0,0,1-5.009,1.61,8.777,8.777,0,0,1-4.767-1.146l.684-2.457a8.068,8.068,0,0,0,4.258,1.174,4.027,4.027,0,0,0,2.593-.751,2.452,2.452,0,0,0,.926-2.009,2.561,2.561,0,0,0-.764-1.885,7.082,7.082,0,0,0-2.536-1.422q-4.831-1.8-4.828-5.275a4.666,4.666,0,0,1,1.691-3.715,6.675,6.675,0,0,1,4.5-1.449,8.925,8.925,0,0,1,4.172.874l-.737,2.4a7.246,7.246,0,0,0-3.518-.845,3.552,3.552,0,0,0-2.427.764,2.18,2.18,0,0,0-.737,1.664,2.242,2.242,0,0,0,.845,1.8A9.51,9.51,0,0,0,81.931,26.1a9.1,9.1,0,0,1,3.491,2.237,4.691,4.691,0,0,1,1.117,3.192" transform="translate(31.931 7.659)"/><path class="c" d="M92.381,25.007H89.134v6.44q0,2.454,1.72,2.455a5.236,5.236,0,0,0,1.308-.137L92.243,36a6.644,6.644,0,0,1-2.291.326,3.538,3.538,0,0,1-2.729-1.063,5.23,5.23,0,0,1-.983-3.575V25.007H84.306V22.8H86.24V20.369l2.894-.874v3.3h3.248Z" transform="translate(35.83 8.285)"/><path class="c" d="M104.127,28.415a7.285,7.285,0,0,1-1.746,5.019,6.239,6.239,0,0,1-4.858,2.018,5.93,5.93,0,0,1-4.651-1.935,7.059,7.059,0,0,1-1.733-4.883,7.206,7.206,0,0,1,1.787-5.047,6.181,6.181,0,0,1,4.815-1.965,6.055,6.055,0,0,1,4.693,1.938,6.983,6.983,0,0,1,1.693,4.856m-3.058.094a5.974,5.974,0,0,0-.791-3.146,2.909,2.909,0,0,0-2.645-1.586,2.955,2.955,0,0,0-2.7,1.586,6.08,6.08,0,0,0-.789,3.2,5.97,5.97,0,0,0,.789,3.146A2.977,2.977,0,0,0,97.607,33.3a2.947,2.947,0,0,0,2.645-1.613,5.976,5.976,0,0,0,.818-3.175" transform="translate(38.735 9.189)"/><path class="c" d="M109.09,24.485a5.074,5.074,0,0,0-.928-.081,2.787,2.787,0,0,0-2.4,1.174,4.4,4.4,0,0,0-.737,2.618v6.957h-2.944l.027-9.084q0-2.291-.111-4.174h2.566l.108,2.537h.081a4.54,4.54,0,0,1,1.473-2.1,3.565,3.565,0,0,1,2.129-.71,4.757,4.757,0,0,1,.737.054Z" transform="translate(43.348 9.189)"/><path class="c" d="M119.737,27.9a7.075,7.075,0,0,1-.108,1.337h-8.841a3.855,3.855,0,0,0,1.284,3,4.369,4.369,0,0,0,2.89.926,9.77,9.77,0,0,0,3.575-.627L119,34.588a11.082,11.082,0,0,1-4.445.819,6.428,6.428,0,0,1-4.844-1.817,6.692,6.692,0,0,1-1.761-4.869,7.6,7.6,0,0,1,1.639-4.993,5.646,5.646,0,0,1,4.637-2.126,4.94,4.94,0,0,1,4.339,2.126,7.173,7.173,0,0,1,1.173,4.175m-2.81-.764a4.024,4.024,0,0,0-.571-2.264,2.58,2.58,0,0,0-2.35-1.227,2.792,2.792,0,0,0-2.344,1.2,4.382,4.382,0,0,0-.874,2.29Z" transform="translate(45.878 9.181)"/><path class="c" d="M47.545,11.577a4.534,4.534,0,0,1-1.462,3.672,5.81,5.81,0,0,1-3.846,1.139,17.963,17.963,0,0,1-2.118-.107V7.4a15.5,15.5,0,0,1,2.494-.188A5.366,5.366,0,0,1,46.191,8.24a4.169,4.169,0,0,1,1.354,3.337m-1.528.04a3.3,3.3,0,0,0-.838-2.427,3.3,3.3,0,0,0-2.447-.844,6.21,6.21,0,0,0-1.167.094V15.2a7.7,7.7,0,0,0,.979.041,3.429,3.429,0,0,0,2.566-.925,3.7,3.7,0,0,0,.906-2.695" transform="translate(17.051 3.063)"/><path class="c" d="M52.914,12.266a3.573,3.573,0,0,1-.858,2.465,3.061,3.061,0,0,1-2.387.993,2.917,2.917,0,0,1-2.286-.952,3.466,3.466,0,0,1-.849-2.4,3.537,3.537,0,0,1,.876-2.479,3.038,3.038,0,0,1,2.366-.965,2.983,2.983,0,0,1,2.307.95,3.441,3.441,0,0,1,.831,2.387m-1.5.047a2.941,2.941,0,0,0-.389-1.546,1.429,1.429,0,0,0-1.3-.779,1.453,1.453,0,0,0-1.328.779,3,3,0,0,0-.388,1.572,2.96,2.96,0,0,0,.388,1.548,1.463,1.463,0,0,0,1.315.778,1.447,1.447,0,0,0,1.3-.792,2.935,2.935,0,0,0,.4-1.559" transform="translate(19.777 3.795)"/><path class="c" d="M61.443,9.023l-2.038,6.514H58.079l-.845-2.829a20.786,20.786,0,0,1-.523-2.1h-.026a15.176,15.176,0,0,1-.524,2.1l-.9,2.829H53.924L52.007,9.023h1.488l.737,3.1q.267,1.1.443,2.09H54.7q.162-.817.537-2.078l.923-3.109h1.18l.885,3.042q.323,1.114.523,2.145h.04a20.819,20.819,0,0,1,.443-2.145l.791-3.042Z" transform="translate(22.103 3.835)"/><path class="c" d="M65.6,15.577H64.151V11.846q0-1.725-1.312-1.724a1.308,1.308,0,0,0-1.046.475,1.681,1.681,0,0,0-.4,1.117v3.863H59.943V10.925q0-.857-.053-1.862h1.273l.067,1.017h.04a2.1,2.1,0,0,1,.751-.787,2.442,2.442,0,0,1,1.312-.365,2.08,2.08,0,0,1,1.516.59,2.864,2.864,0,0,1,.75,2.157Z" transform="translate(25.453 3.795)"/><rect class="c" width="1.446" height="9.503" transform="translate(93.6 9.868)"/><path class="c" d="M74.586,12.266a3.574,3.574,0,0,1-.859,2.465,3.062,3.062,0,0,1-2.385.993,2.909,2.909,0,0,1-2.286-.952,3.467,3.467,0,0,1-.851-2.4,3.544,3.544,0,0,1,.876-2.479,3.038,3.038,0,0,1,2.365-.965,2.981,2.981,0,0,1,2.307.95,3.442,3.442,0,0,1,.832,2.387m-1.5.047a2.954,2.954,0,0,0-.388-1.546,1.428,1.428,0,0,0-1.3-.779,1.447,1.447,0,0,0-1.327.779,2.99,2.99,0,0,0-.389,1.572,2.947,2.947,0,0,0,.389,1.548,1.48,1.48,0,0,0,2.613-.014,2.934,2.934,0,0,0,.4-1.559" transform="translate(28.987 3.795)"/><path class="c" d="M79.2,15.577H77.9l-.11-.751h-.04a2.23,2.23,0,0,1-1.9.9,1.964,1.964,0,0,1-1.488-.59,1.851,1.851,0,0,1-.509-1.327,2.025,2.025,0,0,1,1-1.823,5.2,5.2,0,0,1,2.81-.617v-.121q0-1.285-1.354-1.287a3.028,3.028,0,0,0-1.7.483l-.294-.952a4.171,4.171,0,0,1,2.234-.561q2.556,0,2.555,2.693v2.4a10.284,10.284,0,0,0,.1,1.555m-1.5-2.239V12.332q-2.4-.038-2.4,1.314a.979.979,0,0,0,.279.764,1.007,1.007,0,0,0,.707.255,1.457,1.457,0,0,0,.885-.3,1.235,1.235,0,0,0,.5-.769,1.211,1.211,0,0,0,.024-.255" transform="translate(31.385 3.795)"/><path class="c" d="M85.231,16.428H83.944l-.067-1.046h-.04a2.166,2.166,0,0,1-2.092,1.194,2.454,2.454,0,0,1-1.957-.925,3.6,3.6,0,0,1-.778-2.4,3.783,3.783,0,0,1,.845-2.561,2.6,2.6,0,0,1,2.011-.911,1.953,1.953,0,0,1,1.835.885h.027V6.925H85.18v7.748c0,.634.014,1.22.051,1.756m-1.5-2.747V12.6a2.084,2.084,0,0,0-.04-.456,1.645,1.645,0,0,0-.524-.878,1.418,1.418,0,0,0-.968-.355,1.489,1.489,0,0,0-1.275.643,2.764,2.764,0,0,0-.463,1.649,2.569,2.569,0,0,0,.446,1.569,1.488,1.488,0,0,0,1.264.643,1.4,1.4,0,0,0,1.146-.536,1.8,1.8,0,0,0,.415-1.193" transform="translate(33.58 2.943)"/><path class="c" d="M93.97,12.266a3.566,3.566,0,0,1-.858,2.465,3.059,3.059,0,0,1-2.387.993,2.916,2.916,0,0,1-2.284-.952,3.46,3.46,0,0,1-.851-2.4,3.537,3.537,0,0,1,.876-2.479,3.042,3.042,0,0,1,2.368-.965,2.979,2.979,0,0,1,2.3.95,3.441,3.441,0,0,1,.831,2.387m-1.5.047a2.954,2.954,0,0,0-.388-1.546,1.433,1.433,0,0,0-1.3-.779,1.453,1.453,0,0,0-1.327.779,2.99,2.99,0,0,0-.389,1.572,2.947,2.947,0,0,0,.389,1.548,1.481,1.481,0,0,0,2.615-.014,2.948,2.948,0,0,0,.4-1.559" transform="translate(37.226 3.795)"/><path class="c" d="M99.234,15.577H97.786V11.846q0-1.725-1.312-1.724a1.3,1.3,0,0,0-1.046.475,1.681,1.681,0,0,0-.4,1.117v3.863H93.576V10.925c0-.571-.016-1.193-.051-1.862H94.8l.068,1.017h.04a2.1,2.1,0,0,1,.75-.787,2.446,2.446,0,0,1,1.314-.365,2.079,2.079,0,0,1,1.515.59,2.859,2.859,0,0,1,.751,2.157Z" transform="translate(39.748 3.795)"/><path class="c" d="M105.553,10.592h-1.595v3.163c0,.805.282,1.206.845,1.206a2.627,2.627,0,0,0,.644-.066l.037,1.1a3.269,3.269,0,0,1-1.124.161,1.726,1.726,0,0,1-1.338-.523,2.548,2.548,0,0,1-.484-1.756V10.592h-.952V9.507h.952V8.314l1.421-.429V9.507h1.595Z" transform="translate(43.174 3.351)"/><path class="c" d="M111.438,16.428h-1.451v-3.7q0-1.751-1.311-1.751a1.382,1.382,0,0,0-1.381,1.016,1.774,1.774,0,0,0-.068.522v3.917h-1.446v-9.5h1.446v3.926h.026a2.194,2.194,0,0,1,1.958-1.07,2.02,2.02,0,0,1,1.489.59,2.959,2.959,0,0,1,.738,2.185Z" transform="translate(44.957 2.943)"/><path class="c" d="M117.027,12.016a3.533,3.533,0,0,1-.054.657h-4.342a1.887,1.887,0,0,0,.628,1.473,2.152,2.152,0,0,0,1.422.457,4.8,4.8,0,0,0,1.757-.309l.227,1.006a5.486,5.486,0,0,1-2.186.4,3.153,3.153,0,0,1-2.377-.891,3.285,3.285,0,0,1-.865-2.394,3.729,3.729,0,0,1,.805-2.452,2.766,2.766,0,0,1,2.277-1.046,2.419,2.419,0,0,1,2.129,1.046,3.5,3.5,0,0,1,.579,2.051m-1.382-.375a1.947,1.947,0,0,0-.281-1.113,1.265,1.265,0,0,0-1.153-.6,1.377,1.377,0,0,0-1.151.589,2.181,2.181,0,0,0-.429,1.127Z" transform="translate(47.276 3.791)"/></g></svg>