<?xml version="1.0" encoding="utf-8"?>
<!-- Generator: Adobe Illustrator 25.2.0, SVG Export Plug-In . SVG Version: 6.00 Build 0)  -->
<svg version="1.1" id="Layer_1" xmlns="http://www.w3.org/2000/svg" xmlns:xlink="http://www.w3.org/1999/xlink" x="0px" y="0px"
	 viewBox="0 0 54 54" style="enable-background:new 0 0 54 54;" xml:space="preserve">
<style type="text/css">
	.st0{clip-path:url(#SVGID_2_);}
	.st1{fill:#166E3B;}
	.st2{fill:#2ECB70;}
	.st3{fill:#FFFFFF;}
	.st4{fill:#FFFBEB;}
	.st5{fill:#39375E;}
	.st6{fill:#272749;}
	.st7{fill:#22B25C;}
	.st8{fill:#D8E0C9;}
	.st9{fill:#C7CEB6;}
</style>
<g>
	<defs>
		<rect id="SVGID_1_" y="0" width="54" height="54"/>
	</defs>
	<clipPath id="SVGID_2_">
		<use xlink:href="#SVGID_1_"  style="overflow:visible;"/>
	</clipPath>
	<g id="logo-new" class="st0">
		<g>
			<g id="logo" transform="translate(2714.352 -226.353)">
				<g id="logo-totalcare" transform="translate(-2714.352 227.353)">
					<path id="total" d="M0,35.3v-3h2.9v-4.1h3.5v4.1h3.9v3H6.5v6.2c0,0.6,0.1,1.2,0.4,1.7c0.4,0.5,1,0.7,1.6,0.6c0.3,0,0.7,0,1-0.1
						c0.3,0,0.6-0.2,0.9-0.3v3c-0.4,0.2-0.9,0.3-1.4,0.4c-0.5,0.1-1,0.1-1.4,0.1c-0.8,0-1.6-0.1-2.3-0.3c-0.6-0.2-1-0.5-1.4-0.9
						c-0.4-0.5-0.6-1-0.7-1.6c-0.1-0.7-0.2-1.5-0.2-2.2v-6.5L0,35.3z M10.4,39.4c0-1.1,0.2-2.1,0.6-3.1c0.4-0.9,0.9-1.7,1.6-2.3
						c0.7-0.7,1.5-1.2,2.5-1.5c1-0.4,2-0.5,3-0.5c1,0,2,0.2,3,0.5c0.9,0.3,1.7,0.8,2.5,1.5c0.7,0.7,1.3,1.5,1.6,2.3
						c0.4,1,0.6,2,0.6,3.1c0,1.1-0.2,2.1-0.6,3.1c-0.4,0.9-0.9,1.7-1.6,2.3c-0.7,0.7-1.5,1.2-2.5,1.5c-1,0.4-2,0.5-3,0.5
						c-1,0-2-0.2-3-0.5c-0.9-0.3-1.7-0.8-2.5-1.5c-0.7-0.7-1.3-1.5-1.6-2.3C10.6,41.5,10.4,40.5,10.4,39.4z M13.9,39.4
						c0,0.5,0.1,1.1,0.3,1.6c0.2,0.5,0.5,1,0.8,1.4c0.4,0.4,0.8,0.7,1.3,0.9c0.5,0.2,1.1,0.4,1.7,0.4c0.6,0,1.2-0.1,1.7-0.4
						c0.5-0.2,0.9-0.5,1.3-0.9c0.4-0.4,0.6-0.9,0.8-1.4c0.2-0.5,0.3-1.1,0.3-1.6c0-0.5-0.1-1.1-0.3-1.6c-0.2-0.5-0.5-1-0.8-1.4
						c-0.4-0.4-0.8-0.7-1.3-0.9c-0.5-0.2-1.1-0.4-1.7-0.4c-0.6,0-1.2,0.1-1.7,0.4c-0.5,0.2-0.9,0.5-1.3,0.9
						c-0.4,0.4-0.6,0.9-0.8,1.4C14,38.3,13.9,38.9,13.9,39.4L13.9,39.4z M25.4,35.3v-3h2.9v-4.1h3.5v4.1h3.9v3h-3.9v6.2
						c0,0.6,0.1,1.2,0.4,1.7c0.4,0.5,1,0.7,1.6,0.6c0.3,0,0.7,0,1-0.1c0.3,0,0.6-0.2,0.9-0.3v3c-0.4,0.2-0.9,0.3-1.4,0.4
						c-0.5,0.1-1,0.1-1.4,0.1c-0.8,0-1.6-0.1-2.3-0.3c-0.6-0.2-1-0.5-1.4-0.9c-0.4-0.5-0.6-1-0.7-1.6c-0.1-0.7-0.2-1.5-0.2-2.2v-6.5
						L25.4,35.3z M45.3,44.6L45.3,44.6c-0.6,0.8-1.2,1.4-2,1.8c-0.8,0.4-1.7,0.6-2.6,0.5c-0.6,0-1.3-0.1-1.9-0.3
						c-0.6-0.2-1.2-0.4-1.7-0.8c-0.5-0.4-0.9-0.8-1.2-1.3c-0.3-0.6-0.5-1.2-0.4-1.9c0-0.7,0.1-1.4,0.4-2c0.3-0.5,0.6-1,1.1-1.4
						c0.5-0.4,1-0.7,1.6-0.9c0.6-0.2,1.3-0.4,1.9-0.5c0.7-0.1,1.3-0.2,2-0.2c0.7,0,1.3,0,1.9,0h0.9v-0.4c0.1-0.8-0.3-1.5-0.9-2
						c-0.7-0.5-1.5-0.7-2.3-0.7c-0.7,0-1.4,0.1-2.1,0.4c-0.6,0.2-1.2,0.6-1.7,1.1l-1.9-1.9c0.8-0.8,1.7-1.4,2.8-1.7
						c1.1-0.4,2.2-0.5,3.3-0.5c0.9,0,1.7,0.1,2.5,0.3c0.6,0.2,1.2,0.5,1.7,0.9c0.4,0.3,0.8,0.7,1,1.2c0.2,0.4,0.4,0.9,0.5,1.4
						c0.1,0.5,0.2,0.9,0.2,1.4c0,0.4,0,0.8,0,1.2v8.2h-3.2L45.3,44.6z M45.1,40.2h-0.7c-0.5,0-1,0-1.7,0.1c-0.6,0-1.2,0.1-1.7,0.3
						c-0.5,0.1-1,0.3-1.4,0.7c-0.4,0.3-0.6,0.7-0.6,1.2c0,0.3,0.1,0.6,0.2,0.8c0.2,0.2,0.3,0.4,0.6,0.6c0.2,0.2,0.5,0.3,0.8,0.3
						c0.3,0.1,0.6,0.1,0.9,0.1c1,0.1,2-0.2,2.7-0.9c0.6-0.6,0.9-1.5,0.9-2.4L45.1,40.2z M50.3,24.2h3.5v22.3h-3.5L50.3,24.2z"/>
					<path id="care" class="st1" d="M34.5,26.5c-0.2-0.2-0.3-0.3-0.5-0.4c-0.2-0.1-0.4-0.2-0.5-0.2c-0.2,0-0.5,0-0.7,0.1
						c-0.2,0.1-0.4,0.2-0.5,0.4c-0.1,0.2-0.3,0.3-0.3,0.5c-0.1,0.2-0.1,0.4-0.1,0.6c0,0.2,0,0.4,0.1,0.6c0.1,0.2,0.2,0.4,0.3,0.5
						c0.1,0.2,0.3,0.3,0.5,0.4c0.2,0.1,0.5,0.1,0.7,0.1c0.2,0,0.4,0,0.6-0.1c0.2-0.1,0.4-0.2,0.5-0.4l0.9,1
						c-0.1,0.1-0.3,0.3-0.5,0.4c-0.2,0.1-0.4,0.2-0.6,0.2c-0.2,0.1-0.4,0.1-0.5,0.1c-0.1,0-0.3,0-0.4,0c-0.4,0-0.8-0.1-1.2-0.2
						c-0.4-0.1-0.7-0.3-1-0.6c-0.3-0.3-0.5-0.6-0.6-0.9c-0.2-0.4-0.2-0.8-0.2-1.2c0-0.4,0.1-0.8,0.2-1.2c0.2-0.3,0.4-0.7,0.6-0.9
						c0.3-0.3,0.6-0.5,1-0.6c0.4-0.1,0.8-0.2,1.2-0.2c0.4,0,0.7,0.1,1.1,0.2c0.4,0.1,0.7,0.4,1,0.6L34.5,26.5z M39,29.6L39,29.6
						c-0.2,0.3-0.5,0.5-0.8,0.7c-0.3,0.1-0.7,0.2-1,0.2c-0.3,0-0.5,0-0.8-0.1c-0.2-0.1-0.5-0.2-0.7-0.3c-0.2-0.1-0.3-0.3-0.5-0.5
						c-0.1-0.2-0.2-0.5-0.2-0.7c0-0.3,0-0.5,0.2-0.8c0.1-0.2,0.3-0.4,0.4-0.5c0.2-0.1,0.4-0.3,0.6-0.3c0.2-0.1,0.5-0.2,0.8-0.2
						c0.3,0,0.5-0.1,0.8-0.1c0.3,0,0.5,0,0.7,0H39v-0.2c0-0.3-0.1-0.6-0.4-0.8c-0.3-0.2-0.6-0.3-0.9-0.3c-0.3,0-0.6,0.1-0.8,0.2
						c-0.2,0.1-0.5,0.2-0.7,0.4l-0.7-0.7c0.3-0.3,0.7-0.6,1.1-0.7c0.4-0.1,0.9-0.2,1.3-0.2c0.3,0,0.7,0,1,0.1
						c0.2,0.1,0.5,0.2,0.7,0.3c0.2,0.1,0.3,0.3,0.4,0.5c0.1,0.2,0.2,0.4,0.2,0.6c0,0.2,0.1,0.4,0.1,0.5c0,0.2,0,0.3,0,0.5v3.2H39
						L39,29.6z M38.9,27.9h-0.3c-0.2,0-0.4,0-0.7,0c-0.2,0-0.5,0.1-0.7,0.1c-0.2,0-0.4,0.1-0.5,0.3c-0.1,0.1-0.2,0.3-0.2,0.5
						c0,0.1,0,0.2,0.1,0.3c0.1,0.1,0.1,0.2,0.2,0.2c0.1,0.1,0.2,0.1,0.3,0.1c0.1,0,0.2,0,0.3,0c0.4,0,0.8-0.1,1.1-0.3
						c0.2-0.3,0.4-0.6,0.3-0.9L38.9,27.9z M41,24.8h1.4v0.9h0c0.1-0.3,0.4-0.6,0.7-0.8c0.3-0.2,0.6-0.3,1-0.3c0.1,0,0.2,0,0.3,0
						c0.1,0,0.2,0,0.3,0.1v1.4c-0.1,0-0.2-0.1-0.3-0.1c-0.1,0-0.2,0-0.3,0c-0.3,0-0.5,0-0.8,0.2c-0.2,0.1-0.3,0.2-0.5,0.4
						c-0.1,0.1-0.2,0.3-0.2,0.5c0,0.1,0,0.2-0.1,0.4v3H41L41,24.8z M45.6,28.1c0,0.4,0.2,0.7,0.5,1c0.3,0.2,0.6,0.4,1,0.4
						c0.3,0,0.6-0.1,0.9-0.2c0.2-0.1,0.4-0.3,0.6-0.5l1,0.8c-0.3,0.4-0.7,0.7-1.1,0.9c-0.4,0.2-0.8,0.3-1.3,0.3
						c-0.4,0-0.8-0.1-1.2-0.2c-0.4-0.1-0.7-0.3-1-0.6c-0.3-0.3-0.5-0.6-0.6-0.9c-0.2-0.4-0.2-0.8-0.2-1.2c0-0.4,0.1-0.8,0.2-1.2
						c0.2-0.3,0.4-0.7,0.6-0.9c0.3-0.3,0.6-0.5,1-0.6c0.4-0.1,0.8-0.2,1.2-0.2c0.4,0,0.7,0.1,1.1,0.2c0.3,0.1,0.6,0.3,0.8,0.6
						c0.2,0.3,0.4,0.6,0.5,1c0.1,0.4,0.2,0.9,0.2,1.3v0.4L45.6,28.1z M48.5,27c0-0.4-0.1-0.7-0.4-1c-0.3-0.3-0.7-0.4-1-0.4
						c-0.4,0-0.7,0.1-1,0.4c-0.3,0.3-0.4,0.6-0.4,1L48.5,27z"/>
					<path id="MOBILITY" d="M3.5,48.9h0.9l0.9,2.3l0.9-2.3h0.9v3.3H6.5v-2.8h0l-1,2.8H5.1l-1-2.8h0v2.8H3.5V48.9z M11.4,50.6
						c0-0.2,0-0.5,0.1-0.7c0.1-0.2,0.2-0.4,0.4-0.6c0.2-0.2,0.3-0.3,0.6-0.4c0.2-0.1,0.5-0.1,0.7-0.1c0.2,0,0.5,0,0.7,0.1
						c0.2,0.1,0.4,0.2,0.6,0.4c0.2,0.2,0.3,0.3,0.4,0.6c0.1,0.2,0.1,0.5,0.1,0.7c0,0.2,0,0.5-0.1,0.7c-0.1,0.2-0.2,0.4-0.4,0.6
						c-0.2,0.2-0.4,0.3-0.6,0.4c-0.2,0.1-0.5,0.1-0.7,0.1c-0.2,0-0.5,0-0.7-0.1c-0.2-0.1-0.4-0.2-0.6-0.4c-0.2-0.2-0.3-0.3-0.4-0.5
						C11.5,51.1,11.4,50.8,11.4,50.6L11.4,50.6z M12.1,50.5c0,0.2,0,0.3,0.1,0.5c0.1,0.1,0.1,0.3,0.2,0.4c0.1,0.1,0.2,0.2,0.4,0.3
						c0.1,0.1,0.3,0.1,0.5,0.1c0.2,0,0.3,0,0.5-0.1c0.1-0.1,0.3-0.1,0.4-0.3c0.1-0.1,0.2-0.2,0.2-0.4c0.1-0.2,0.1-0.3,0.1-0.5
						c0-0.2,0-0.3-0.1-0.5c-0.1-0.1-0.1-0.3-0.2-0.4c-0.1-0.1-0.2-0.2-0.4-0.3c-0.1-0.1-0.3-0.1-0.5-0.1c-0.2,0-0.3,0-0.5,0.1
						c-0.1,0.1-0.3,0.1-0.4,0.3c-0.1,0.1-0.2,0.2-0.2,0.4C12.1,50.2,12.1,50.4,12.1,50.5L12.1,50.5z M19.3,48.9h1.3
						c0.1,0,0.3,0,0.4,0c0.1,0,0.2,0.1,0.3,0.1c0.1,0.1,0.2,0.2,0.2,0.3c0.1,0.1,0.1,0.3,0.1,0.4c0,0.2-0.1,0.3-0.2,0.5
						c-0.1,0.1-0.3,0.2-0.4,0.3v0c0.1,0,0.2,0,0.3,0.1c0.1,0,0.2,0.1,0.2,0.2c0.1,0.1,0.1,0.2,0.1,0.2c0,0.1,0.1,0.2,0.1,0.3
						c0,0.2,0,0.3-0.1,0.5c-0.1,0.1-0.2,0.2-0.3,0.3c-0.1,0.1-0.3,0.1-0.4,0.2c-0.2,0-0.3,0-0.5,0h-1.2L19.3,48.9z M19.9,50.2h0.5
						c0.2,0,0.3,0,0.4-0.1c0.1-0.1,0.2-0.2,0.1-0.3c0-0.1,0-0.2-0.2-0.3c-0.2-0.1-0.3-0.1-0.5-0.1h-0.5L19.9,50.2z M19.9,51.7h0.5
						c0.1,0,0.2,0,0.2,0c0.1,0,0.2,0,0.2-0.1c0.1,0,0.1-0.1,0.2-0.1c0.1-0.1,0.1-0.2,0.1-0.3c0-0.1-0.1-0.3-0.2-0.4
						c-0.2-0.1-0.4-0.1-0.5-0.1h-0.6L19.9,51.7z M26.1,48.9h0.6v3.3h-0.6L26.1,48.9z M31.2,48.9h0.6v2.8h1.4v0.5h-2V48.9z
						 M37.4,48.9H38v3.3h-0.6V48.9z M43.2,49.4h-1v-0.5h2.6v0.5h-1v2.8h-0.6L43.2,49.4z M49.8,50.8l-1.3-1.9h0.7l0.8,1.3l0.8-1.3
						h0.7l-1.3,1.9v1.4h-0.6L49.8,50.8z"/>
					<circle id="Ellipse_15" class="st2" cx="17.2" cy="14.4" r="14.4"/>
					<circle id="Ellipse_16" class="st3" cx="17.2" cy="14.4" r="13.2"/>
					<g id="Group_26" transform="translate(3.79 7.401)">
						<path id="Path_30" class="st4" d="M6.2,2.1h-3l0.6-2C3.9,0.1,4,0,4.1,0h1.2c0.1,0,0.2,0.1,0.3,0.2L6.2,2.1z"/>
						<path id="Path_31" class="st2" d="M25.3,12.9v2.5H3c-0.2-0.2-0.4-0.5-0.5-0.7c-0.1-0.1-0.2-0.2-0.2-0.3c0-0.1-0.1-0.1-0.2-0.2
							c-0.3-0.4-0.5-0.9-0.7-1.3c-0.1-0.2-0.2-0.3-0.2-0.5l0,0c-0.4-0.9-0.7-1.9-0.9-2.9c0-0.2-0.1-0.3-0.1-0.5
							C0.1,8.7,0.1,8.3,0,7.9C0,7.6,0,7.3,0,7c0-1.4,0.2-2.7,0.6-4C0.7,2.7,0.8,2.4,1,2h9.7c0.7,0,1.4,0.3,1.8,0.8L17,7.6
							c0.2,0.2,0.4,0.3,0.6,0.4l6.5,1.2c0.3,0.1,0.5,0.4,0.6,0.7l0,0.2l0.4,1.8l0,0l0.1,0.4l0,0.2l0,0.1L25.3,12.9z"/>
						<path id="Path_32" class="st5" d="M4.8,7.9h10.5c0.1,0,0.2-0.1,0.2-0.2c0-0.1,0-0.1-0.1-0.1l-4.1-4.4c0,0-0.1-0.1-0.2-0.1H3.5
							C3.4,3,3.3,3.1,3.3,3.3c0,0,0,0,0,0.1l1.3,4.4C4.6,7.8,4.7,7.9,4.8,7.9z"/>
						<path id="Path_33" class="st6" d="M6.1,7.7L4.8,3.3c0-0.1,0-0.2,0.1-0.3C5,3,5,3,5,3H3.5C3.4,3,3.3,3.1,3.3,3.3c0,0,0,0,0,0.1
							l1.3,4.4c0,0.1,0.1,0.2,0.2,0.2h1.5C6.3,7.9,6.2,7.8,6.1,7.7z"/>
						<path id="Path_34" class="st5" d="M3.3,7.9H0C0,7.6,0,7.3,0,7c0-1.4,0.2-2.7,0.6-4H2c0.1,0,0.2,0.1,0.2,0.2l1.3,4.4
							C3.6,7.7,3.5,7.9,3.3,7.9C3.4,7.9,3.4,7.9,3.3,7.9L3.3,7.9z"/>
						<path id="Path_35" class="st7" d="M25.3,12.9v1.5h-23c0-0.1-0.1-0.1-0.2-0.2c-0.3-0.4-0.5-0.9-0.7-1.3
							c-0.1-0.2-0.2-0.3-0.2-0.5h24.1l0,0.1L25.3,12.9z"/>
						<g id="Group_24" transform="translate(0.603 9.05)">
							<rect id="Rectangle_49" x="1.5" y="0" class="st4" width="1.9" height="1.9"/>
							<rect id="Rectangle_50" x="5.4" y="0" class="st4" width="1.9" height="1.9"/>
							<rect id="Rectangle_51" x="9.2" y="0" class="st4" width="1.9" height="1.9"/>
							<rect id="Rectangle_52" x="13" y="0" class="st4" width="1.9" height="1.9"/>
							<path id="Path_36" class="st4" d="M1.5,1.9v1.9H0.8C0.7,3.7,0.6,3.5,0.5,3.3l0,0C0.3,2.9,0.2,2.4,0,1.9L1.5,1.9z"/>
							<rect id="Rectangle_53" x="3.5" y="1.9" class="st4" width="1.9" height="1.9"/>
							<rect id="Rectangle_54" x="7.3" y="1.9" class="st4" width="1.9" height="1.9"/>
							<rect id="Rectangle_55" x="11.1" y="1.9" class="st4" width="1.9" height="1.9"/>
						</g>
						<g id="Group_25" transform="translate(1.148 12.394)">
							<path id="Path_37" class="st8" d="M1,0v0.5H0.2C0.1,0.3,0.1,0.2,0,0l0,0L1,0z"/>
							<rect id="Rectangle_56" x="2.9" y="0" class="st8" width="1.9" height="0.5"/>
							<rect id="Rectangle_57" x="6.7" y="0" class="st8" width="1.9" height="0.5"/>
							<rect id="Rectangle_58" x="10.6" y="0" class="st8" width="1.9" height="0.5"/>
						</g>
						<path id="Path_38" class="st4" d="M24.5,11.9h0.6L24.7,10h-2.2c-0.1,0-0.2,0.1-0.2,0.2c0,0,0,0,0,0.1l0,0
							C22.6,11.2,23.5,11.9,24.5,11.9z"/>
						<path id="Path_39" class="st8" d="M23.4,10.3L23.4,10.3c0-0.1,0-0.2,0.1-0.2c0,0,0,0,0.1,0h-1c-0.1,0-0.2,0.1-0.2,0.2
							c0,0,0,0,0,0.1l0,0c0.3,0.9,1.1,1.6,2.1,1.6h0.6l0,0C24.3,11.7,23.6,11.1,23.4,10.3z"/>
						<path id="Path_40" class="st4" d="M25.9,13.2v1.2c0,0.2-0.1,0.3-0.2,0.3H2.5c-0.1-0.1-0.2-0.2-0.2-0.3c0-0.1-0.1-0.1-0.2-0.2
							c-0.3-0.4-0.5-0.9-0.7-1.3h24.2C25.8,12.9,25.9,13,25.9,13.2z"/>
						<path id="Path_41" class="st8" d="M26.3,14.5v1.3c0,0.2-0.1,0.3-0.3,0.3H3.7c-0.1-0.1-0.2-0.2-0.2-0.2l0,0l-0.1-0.1l0,0
							c-0.1-0.1-0.2-0.2-0.3-0.4c-0.2-0.2-0.4-0.5-0.5-0.7c-0.1-0.1-0.2-0.2-0.2-0.3c0-0.1-0.1-0.1-0.2-0.2H26
							C26.1,14.2,26.3,14.3,26.3,14.5z"/>
						<circle id="Ellipse_17" class="st5" cx="19.4" cy="15.4" r="3.8"/>
						<path id="Path_42" class="st6" d="M20,18.6c-2.1,0-3.8-1.7-3.8-3.8c0-0.9,0.3-1.7,0.8-2.4c-1.6,1.3-1.9,3.7-0.6,5.3
							s3.7,1.9,5.3,0.6c0.2-0.2,0.4-0.4,0.6-0.6C21.7,18.3,20.9,18.6,20,18.6z"/>
						<circle id="Ellipse_18" class="st9" cx="19.4" cy="15.4" r="2"/>
						<path id="Path_43" class="st4" d="M19.4,14.4L19.4,14.4c-0.1,0-0.2-0.1-0.3-0.2l-0.4-0.7c-0.5,0.2-0.9,0.6-1.1,1.1l0.7,0.4
							c0.1,0.1,0.2,0.2,0.2,0.3l0,0c0,0.1-0.1,0.2-0.2,0.3l-0.7,0.4c0.2,0.5,0.6,0.9,1.1,1.1l0.4-0.7c0.1-0.1,0.2-0.2,0.3-0.2l0,0
							c0.1,0,0.2,0.1,0.3,0.2l0.4,0.7c0.5-0.2,0.9-0.6,1.1-1.1l-0.7-0.4c-0.1-0.1-0.2-0.2-0.2-0.3l0,0c0-0.1,0.1-0.2,0.2-0.3
							l0.7-0.4c-0.2-0.5-0.6-0.9-1.1-1.1l-0.4,0.7C19.7,14.3,19.5,14.4,19.4,14.4z"/>
						<circle id="Ellipse_19" class="st8" cx="19.4" cy="15.4" r="1.3"/>
						<circle id="Ellipse_20" class="st4" cx="19.4" cy="15.4" r="0.7"/>
						<path id="Path_44" class="st5" d="M6.9,9.4H5.5c-0.4,0-0.8-0.3-0.8-0.8l0,0l0,0c0-0.1,0.1-0.2,0.2-0.2l0,0h2.4
							c0.1,0,0.2,0.1,0.2,0.2l0,0l0,0C7.6,9.1,7.3,9.4,6.9,9.4C6.9,9.4,6.9,9.4,6.9,9.4z"/>
						<path id="Path_45" class="st6" d="M5.7,8.7L5.7,8.7c0-0.1,0.1-0.2,0.2-0.2l0,0H5c-0.1,0-0.2,0.1-0.2,0.2l0,0l0,0
							c0,0.4,0.3,0.8,0.8,0.8l0,0h0.9C6,9.4,5.7,9.1,5.7,8.7L5.7,8.7z"/>
					</g>
					<rect id="Rectangle_59" x="44.9" y="44.3" class="st3" width="9.1" height="2.6"/>
					<path id="Path_46" d="M29.5,35.6h-9.6l-0.1-3.3h9.6L29.5,35.6z"/>
				</g>
			</g>
		</g>
	</g>
</g>
</svg>
