<svg xmlns="http://www.w3.org/2000/svg" width="30" height="30" viewBox="0 0 30 30">
<defs>
    <style>
        .a {
            fill: #fff;
        }
    </style>
</defs>
<g transform="translate(30) rotate(90)">
    <path class="a"
        d="M15,0A15,15,0,1,0,30,15,15.016,15.016,0,0,0,15,0Zm0,27.676A12.676,12.676,0,1,1,27.676,15,12.691,12.691,0,0,1,15,27.676Z" />
    <g transform="translate(8.097 10.456)">
        <path class="a"
            d="M151.734,184.594l-5.809-5.809a1.161,1.161,0,0,0-1.638,0l-5.809,5.809a1.162,1.162,0,0,0,1.638,1.638l4.984-4.984,5,4.985a1.158,1.158,0,0,0,1.638-1.638Z"
            transform="translate(-138.197 -178.446)" />
    </g>
</g>
</svg>