<svg xmlns="http://www.w3.org/2000/svg" xmlns:xlink="http://www.w3.org/1999/xlink" width="80" height="80" viewBox="0 0 80 80"><defs><style>.a{fill:#fff;stroke:#707070;}.b{clip-path:url(#a);}.c{fill:url(#b);}.d{fill:url(#c);}.e{fill:url(#d);}.f{fill:url(#e);}.g{fill:url(#f);}.h{fill:url(#g);}.i{fill:url(#h);}.j{fill:url(#i);}.k{fill:url(#j);}.l{fill:url(#k);}.m{fill:url(#l);}.n{fill:url(#m);}.o{fill:url(#n);}.p{fill:url(#o);}.q{fill:url(#p);}.r{fill:url(#q);}.s{fill:url(#r);}.t{fill:url(#s);}.u{fill:url(#t);}.v{fill:url(#u);}.w{fill:url(#v);}.x{fill:url(#w);}.y{fill:url(#x);}.z{fill:url(#y);}.aa{fill:url(#z);}.ab{fill:url(#aa);}.ac{fill:url(#ab);}.ad{fill:url(#ad);}.ae{fill:url(#ae);}.af{fill:url(#af);}.ag{fill:url(#ag);}.ah{fill:url(#ah);}.ai{fill:url(#ai);}.aj{fill:url(#aj);}.ak{fill:url(#ak);}</style><clipPath id="a"><rect class="a" width="80" height="80" transform="translate(802 812)"/></clipPath><linearGradient id="b" x1="0.492" y1="3.008" x2="0.492" y2="2.19" gradientUnits="objectBoundingBox"><stop offset="0" stop-color="#ffcf42"/><stop offset="1" stop-color="#ffb500"/></linearGradient><linearGradient id="c" x1="0.465" y1="3.008" x2="0.465" y2="2.19" xlink:href="#b"/><linearGradient id="d" x1="0.762" y1="2.788" x2="-1.535" y2="5.484" gradientUnits="objectBoundingBox"><stop offset="0" stop-color="#ffb500" stop-opacity="0"/><stop offset="1" stop-color="#ff7000"/></linearGradient><linearGradient id="e" x1="0.49" y1="8.051" x2="0.49" y2="9.286" gradientUnits="objectBoundingBox"><stop offset="0" stop-color="#e7f1fd"/><stop offset="1" stop-color="#b2c7d8"/></linearGradient><linearGradient id="f" x1="0.488" y1="8.777" x2="0.488" y2="8.327" xlink:href="#e"/><linearGradient id="g" x1="-0.06" y1="13.136" x2="0.936" y2="13.136" gradientUnits="objectBoundingBox"><stop offset="0" stop-color="#ff4c4a"/><stop offset="1" stop-color="#ff001c"/></linearGradient><linearGradient id="h" x1="-1.165" y1="12.937" x2="-12.262" y2="12.286" xlink:href="#g"/><linearGradient id="i" x1="-2.719" y1="12.865" x2="-14.816" y2="12.214" xlink:href="#g"/><linearGradient id="j" x1="-19.742" y1="12.907" x2="-76.593" y2="12.251" xlink:href="#g"/><linearGradient id="k" x1="0.51" y1="1.628" x2="0.763" y2="1.435" xlink:href="#b"/><linearGradient id="l" x1="0.496" y1="2.213" x2="0.496" y2="1.398" xlink:href="#d"/><linearGradient id="m" x1="0.498" y1="5.971" x2="0.449" y2="7.256" gradientUnits="objectBoundingBox"><stop offset="0" stop-color="#d53932" stop-opacity="0"/><stop offset="1" stop-color="#7e1416"/></linearGradient><linearGradient id="n" x1="0.496" y1="2.55" x2="0.496" y2="1.372" gradientUnits="objectBoundingBox"><stop offset="0" stop-color="#456a97"/><stop offset="1" stop-color="#1a338c"/></linearGradient><linearGradient id="o" x1="0.495" y1="2.452" x2="0.495" y2="1.729" xlink:href="#b"/><linearGradient id="p" x1="0.425" y1="-0.21" x2="0.961" y2="-0.386" xlink:href="#b"/><linearGradient id="q" x1="0.497" y1="-1.239" x2="0.497" y2="-1.847" xlink:href="#d"/><linearGradient id="r" x1="0.494" y1="-3.3" x2="0.494" y2="-4.316" xlink:href="#n"/><linearGradient id="s" x1="0.494" y1="-3.98" x2="0.494" y2="-3.464" gradientUnits="objectBoundingBox"><stop offset="0" stop-color="#456a97" stop-opacity="0"/><stop offset="1" stop-color="#1a338c"/></linearGradient><linearGradient id="t" x1="0.907" y1="-3.801" x2="-0.761" y2="-3.284" xlink:href="#s"/><linearGradient id="u" x1="0.483" y1="-3.3" x2="0.483" y2="-4.316" xlink:href="#n"/><linearGradient id="v" x1="0.483" y1="-3.98" x2="0.483" y2="-3.464" xlink:href="#s"/><linearGradient id="w" x1="0.885" y1="-3.801" x2="-0.783" y2="-3.284" xlink:href="#s"/><linearGradient id="x" x1="0.6" y1="-6.222" x2="0.361" y2="-4.442" gradientUnits="objectBoundingBox"><stop offset="0" stop-color="#6f2e27" stop-opacity="0"/><stop offset="1" stop-color="#3f2925"/></linearGradient><linearGradient id="y" x1="0.498" y1="-4.882" x2="0.498" y2="-5.897" xlink:href="#e"/><radialGradient id="z" cx="0.501" cy="0.5" r="0.472" gradientTransform="matrix(1, 0, 0, -1, 0, -0.026)" gradientUnits="objectBoundingBox"><stop offset="0" stop-color="#fff"/><stop offset="1" stop-color="#fff" stop-opacity="0"/></radialGradient><radialGradient id="aa" cx="0.374" cy="0.287" r="0.808" gradientTransform="matrix(1, 0, 0, -1, 0, -0.228)" gradientUnits="objectBoundingBox"><stop offset="0" stop-color="#fff2e8"/><stop offset="0.459" stop-color="#fef0e6"/><stop offset="0.625" stop-color="#fcebdf"/><stop offset="0.743" stop-color="#f7e1d4"/><stop offset="0.838" stop-color="#f1d3c3"/><stop offset="0.919" stop-color="#e9c1ad"/><stop offset="0.99" stop-color="#dfac92"/><stop offset="1" stop-color="#dda88e"/></radialGradient><radialGradient id="ab" cx="0.374" cy="0.287" r="0.808" gradientTransform="matrix(1, 0, 0, -1, 0, -0.913)" xlink:href="#aa"/><radialGradient id="ad" cx="0.374" cy="0.287" r="0.808" xlink:href="#aa"/><radialGradient id="ae" cx="0.374" cy="0.287" r="0.808" gradientTransform="matrix(1, 0, 0, -1, 0, -0.913)" xlink:href="#aa"/><linearGradient id="af" x1="-0.005" y1="-0.578" x2="0.991" y2="-0.578" xlink:href="#g"/><linearGradient id="ag" x1="-0.005" y1="-4.133" x2="0.991" y2="-4.133" xlink:href="#g"/><linearGradient id="ah" x1="-0.005" y1="-7.687" x2="0.991" y2="-7.687" xlink:href="#g"/><linearGradient id="ai" x1="-0.005" y1="-11.242" x2="0.991" y2="-11.242" xlink:href="#g"/><linearGradient id="aj" x1="0.739" y1="-6.477" x2="0.242" y2="-4.615" gradientUnits="objectBoundingBox"><stop offset="0" stop-color="#b2c7d8" stop-opacity="0"/><stop offset="1" stop-color="#879faf"/></linearGradient><linearGradient id="ak" x1="0.489" y1="-3.801" x2="0.489" y2="-4.729" gradientUnits="objectBoundingBox"><stop offset="0" stop-color="#fff2e8"/><stop offset="1" stop-color="#e7d2b9"/></linearGradient></defs><g class="b" transform="translate(-802 -812)"><g transform="translate(802 812)"><path class="c" d="M12.873,37.394H7.518A2.494,2.494,0,0,1,5.024,34.9h0a2.494,2.494,0,0,1,2.493-2.493H9.465a4.2,4.2,0,0,1,4.2,4.2h0A.789.789,0,0,1,12.873,37.394Z"/><path class="d" d="M67.127,37.394h5.355A2.494,2.494,0,0,0,74.975,34.9h0a2.494,2.494,0,0,0-2.493-2.493H70.535a4.2,4.2,0,0,0-4.2,4.2h0A.79.79,0,0,0,67.127,37.394Z"/><path class="e" d="M66.808,34.678a4.176,4.176,0,0,0-.471,1.926.79.79,0,0,0,.79.79h2.4Z"/><path class="f" d="M45.588,10.671H34.412a2.3,2.3,0,0,0-2.248,1.806l-1.121,5.079H48.957l-1.121-5.079A2.3,2.3,0,0,0,45.588,10.671Z"/><path class="g" d="M45.031,11.486H34.969a2.073,2.073,0,0,0-2.024,1.626l-1.009,4.573H48.064l-1.009-4.573A2.073,2.073,0,0,0,45.031,11.486Z"/><path class="h" d="M33.869,12.582a.355.355,0,0,1,.05-.19.161.161,0,0,1,.146-.082h2.324a.163.163,0,0,1,.146.079.341.341,0,0,1,.05.187.361.361,0,0,1-.053.2.163.163,0,0,1-.143.082h-.863v3.35a.161.161,0,0,1-.09.143.436.436,0,0,1-.417,0,.161.161,0,0,1-.087-.143V12.86h-.868a.163.163,0,0,1-.143-.082A.352.352,0,0,1,33.869,12.582Z"/><path class="i" d="M37.321,16.159a.169.169,0,0,1,.006-.05l1.112-3.63q.071-.2.4-.2t.4.188l1.109,3.629a.2.2,0,0,1,.011.053.217.217,0,0,1-.13.182.541.541,0,0,1-.277.076q-.177,0-.219-.122l-.232-.8H38.126l-.229.8a.189.189,0,0,1-.207.124.469.469,0,0,1-.251-.073A.207.207,0,0,1,37.321,16.159Zm.94-1.149h1.112l-.561-1.922Z"/><path class="j" d="M41.386,16.13a.27.27,0,0,1,.034-.118l.969-1.658-.941-1.647a.3.3,0,0,1-.045-.146.227.227,0,0,1,.118-.19.455.455,0,0,1,.257-.078.261.261,0,0,1,.224.168l.773,1.434.784-1.434a.245.245,0,0,1,.224-.168.447.447,0,0,1,.252.078.227.227,0,0,1,.118.19.3.3,0,0,1-.045.146l-.941,1.647.969,1.658a.3.3,0,0,1,.039.118.247.247,0,0,1-.126.2.454.454,0,0,1-.26.087.2.2,0,0,1-.185-.134l-.829-1.49-.818,1.49a.224.224,0,0,1-.19.134.446.446,0,0,1-.255-.087A.248.248,0,0,1,41.386,16.13Z"/><path class="k" d="M45.537,16.209V12.5a.154.154,0,0,1,.087-.143.486.486,0,0,1,.42,0,.154.154,0,0,1,.087.143v3.708a.162.162,0,0,1-.087.143.393.393,0,0,1-.21.053.4.4,0,0,1-.207-.053A.161.161,0,0,1,45.537,16.209Z"/><path class="l" d="M57.2,16.912H22.8a7.086,7.086,0,0,0-6.92,5.559L12.427,38.107H67.573L64.122,22.471A7.087,7.087,0,0,0,57.2,16.912Z"/><path class="m" d="M14.841,37.767H65.159L63.025,28.1H16.975Z"/><path class="n" d="M55.845,23.942l-7.03-7.03H31.185l7.03,7.03Z"/><path class="o" d="M55.508,20.919H24.492a4.343,4.343,0,0,0-4.245,3.424L17.1,38.853H62.9l-3.143-14.51A4.343,4.343,0,0,0,55.508,20.919Z"/><path class="p" d="M60.189,38.939H19.811a4.869,4.869,0,0,1,4.869-4.869H55.32a4.869,4.869,0,0,1,4.869,4.869Z"/><path class="q" d="M63.848,36.9h-47.7A13.224,13.224,0,0,0,2.928,50.121V60H77.071v-9.88A13.224,13.224,0,0,0,63.848,36.9Z"/><path class="r" d="M2.928,50.121V60H77.071v-9.88a13.251,13.251,0,0,0-.35-3.015H3.278A13.243,13.243,0,0,0,2.928,50.121Z"/><path class="s" d="M21.109,69.328h-9.3a3.6,3.6,0,0,1-3.6-3.6V58.109h16.5v7.619A3.6,3.6,0,0,1,21.109,69.328Z"/><path class="t" d="M21.109,69.328a3.6,3.6,0,0,0,3.6-3.6V58.109H8.207v4.823l6.4,6.4Z"/><path class="u" d="M16.459,69.328h4.65a3.6,3.6,0,0,0,3.6-3.6V58.109H16.458v11.22Z"/><path class="v" d="M68.192,69.328h-9.3a3.6,3.6,0,0,1-3.6-3.6V58.109h16.5v7.619A3.6,3.6,0,0,1,68.192,69.328Z"/><path class="w" d="M68.192,69.328a3.6,3.6,0,0,0,3.6-3.6V58.109H55.29v4.823l6.4,6.4Z"/><path class="x" d="M63.541,69.328h4.65a3.6,3.6,0,0,0,3.6-3.6V58.109H63.541v11.22Z"/><path class="y" d="M48.14,54.533a1.817,1.817,0,0,0-1.4-.659H33.262a1.821,1.821,0,0,0-1.821,1.821v3.8a1.813,1.813,0,0,0,.074.5H53.609Z"/><path class="z" d="M77.1,62.932H2.9A2.9,2.9,0,0,1,0,60.03v-.9a2.9,2.9,0,0,1,2.9-2.9H77.1a2.9,2.9,0,0,1,2.9,2.9v.9A2.9,2.9,0,0,1,77.1,62.932Z"/><circle class="aa" cx="11.779" cy="11.779" r="11.779" transform="translate(3.42 34.551)"/><circle class="ab" cx="7.308" cy="7.308" r="7.308" transform="translate(7.89 39.021)"/><circle class="ac" cx="5.168" cy="5.168" r="5.168" transform="translate(10.031 41.162)"/><circle class="aa" cx="11.779" cy="11.779" r="11.779" transform="translate(53.023 34.551)"/><circle class="ad" cx="7.308" cy="7.308" r="7.308" transform="translate(57.493 39.021)"/><circle class="ae" cx="5.168" cy="5.168" r="5.168" transform="translate(59.634 41.162)"/><path class="af" d="M52.594,42.237H27.406a.429.429,0,0,1-.429-.429V40.781a.429.429,0,0,1,.429-.429H52.594a.429.429,0,0,1,.429.429v1.027A.429.429,0,0,1,52.594,42.237Z"/><path class="ag" d="M52.594,45.594H27.406a.429.429,0,0,1-.429-.429V44.138a.429.429,0,0,1,.429-.429H52.594a.429.429,0,0,1,.429.429v1.027A.429.429,0,0,1,52.594,45.594Z"/><path class="ah" d="M52.594,48.95H27.406a.429.429,0,0,1-.429-.429V47.494a.429.429,0,0,1,.429-.429H52.594a.429.429,0,0,1,.429.429v1.027A.429.429,0,0,1,52.594,48.95Z"/><path class="ai" d="M52.594,52.306H27.406a.429.429,0,0,1-.429-.429V50.85a.429.429,0,0,1,.429-.429H52.594a.429.429,0,0,1,.429.429v1.027A.429.429,0,0,1,52.594,52.306Z"/><path class="aj" d="M49.84,56.232h-18.4V59.5a1.816,1.816,0,0,0,.659,1.4l2.032,2.032H56.539Z"/><path class="ak" d="M46.738,61.319H33.262A1.821,1.821,0,0,1,31.441,59.5v-3.8a1.821,1.821,0,0,1,1.821-1.821H46.738a1.821,1.821,0,0,1,1.821,1.821v3.8A1.821,1.821,0,0,1,46.738,61.319Z"/></g></g></svg>