<svg xmlns="http://www.w3.org/2000/svg" xmlns:xlink="http://www.w3.org/1999/xlink" width="80" height="80" viewBox="0 0 80 80"><defs><style>.a{fill:#fff;stroke:#707070;}.b{clip-path:url(#a);}.c{fill:url(#b);}.d{fill:url(#c);}.e{fill:url(#d);}.f{fill:url(#e);}</style><clipPath id="a"><rect class="a" width="80" height="80" transform="translate(166 812)"/></clipPath><linearGradient id="b" x1="0.497" y1="-5.814" x2="0.497" y2="-6.308" gradientUnits="objectBoundingBox"><stop offset="0" stop-color="#a7f3ce"/><stop offset="1" stop-color="#61db99"/></linearGradient><linearGradient id="c" x1="0.616" y1="-6.321" x2="0.366" y2="-5.66" gradientUnits="objectBoundingBox"><stop offset="0" stop-color="#61db99" stop-opacity="0"/><stop offset="1" stop-color="#009e74"/></linearGradient><linearGradient id="d" x1="0.324" y1="0.767" x2="0.823" y2="0.36" gradientUnits="objectBoundingBox"><stop offset="0" stop-color="#ff4c54"/><stop offset="1" stop-color="#be3f45"/></linearGradient><linearGradient id="e" x1="0.681" y1="1.17" x2="0.143" y2="0.632" xlink:href="#d"/></defs><g class="b" transform="translate(-166 -812)"><g transform="translate(166 812)"><path class="c" d="M12.714,70.243,5.6,77.1A1.685,1.685,0,0,0,6.77,80H73.23a1.685,1.685,0,0,0,1.164-2.9l-7.187-6.863a3.041,3.041,0,0,0-2.1-.842H14.826A3.043,3.043,0,0,0,12.714,70.243Z"/><path class="d" d="M48.722,69.4l-.008-.006h-17.4c1.806,2.02,3.458,3.793,4.826,5.228L41.524,80h17.8Z"/><path class="e" d="M40.013,0A31.139,31.139,0,0,0,8.875,31.138c0,13.406,18.922,34.73,27.264,43.481a5.351,5.351,0,0,0,7.749,0c8.344-8.751,27.266-30.075,27.266-43.481A31.14,31.14,0,0,0,40.013,0Zm0,42.983A11.845,11.845,0,1,1,51.858,31.138,11.845,11.845,0,0,1,40.013,42.983Z"/><path class="f" d="M40.013,12.314A18.825,18.825,0,1,0,58.838,31.138,18.825,18.825,0,0,0,40.013,12.314Zm0,30.669A11.845,11.845,0,1,1,51.858,31.138,11.845,11.845,0,0,1,40.013,42.983Z"/></g></g></svg>